<?xml version="1.0" encoding="iso-8859-1"?>
<!-- Generator: Adobe Illustrator 18.0.0, SVG Export Plug-In . SVG Version: 6.00 Build 0)  -->
<!DOCTYPE svg PUBLIC "-//W3C//DTD SVG 1.1//EN" "http://www.w3.org/Graphics/SVG/1.1/DTD/svg11.dtd">
<svg version="1.1" id="Capa_1" xmlns="http://www.w3.org/2000/svg" xmlns:xlink="http://www.w3.org/1999/xlink" x="0px" y="0px"
	 viewBox="0 0 157.99 157.99" style="enable-background:new 0 0 157.99 157.99;" xml:space="preserve">
<g>
	<path style="fill:#F6D276;" d="M62.118,105.805c0,4.688-3.801,8.489-8.489,8.489v6.354c8.198,0,14.844-6.646,14.844-14.844
		c0-8.197-6.646-14.844-14.844-14.844v6.354C58.317,97.315,62.118,101.116,62.118,105.805z"/>
	<path style="fill:#F6E7AA;" d="M38.785,105.805c0,8.198,6.646,14.844,14.844,14.844v-6.354c-4.688,0-8.489-3.801-8.489-8.489
		s3.801-8.489,8.489-8.489v-6.354C45.431,90.961,38.785,97.607,38.785,105.805z"/>
	<path style="fill:#F6E7AA;" d="M24.854,105.805h-0.001c0,15.893,12.884,28.775,28.775,28.775v-7.57
		c-11.712,0-21.205-9.493-21.205-21.205c0-11.711,9.493-21.205,21.205-21.205v-7.57C37.737,77.029,24.854,89.913,24.854,105.805z"/>
	<path style="fill:#F6D276;" d="M74.833,105.805c0,11.712-9.494,21.205-21.205,21.205v7.57c15.892,0,28.774-12.883,28.774-28.775
		h0.001c0-15.892-12.884-28.775-28.775-28.775v7.57C65.339,84.6,74.833,94.094,74.833,105.805z"/>
	<path style="fill:#FAA338;" d="M38.785,105.805c0-8.197,6.646-14.844,14.844-14.844V84.6c-11.712,0-21.205,9.494-21.205,21.205
		c0,11.712,9.493,21.205,21.205,21.205v-6.361C45.431,120.648,38.785,114.003,38.785,105.805z"/>
	<path style="fill:#F2852A;" d="M74.833,105.805c0-11.711-9.494-21.205-21.205-21.205v6.361c8.198,0,14.844,6.646,14.844,14.844
		c0,8.198-6.646,14.844-14.844,14.844v6.361C65.339,127.01,74.833,117.517,74.833,105.805z"/>
	<path style="fill:#FAA338;" d="M100.571,100.563h-8.318c-0.922-6.848-3.611-13.118-7.607-18.36l5.884-5.884
		c2.039-2.039,2.039-5.375,0-7.414s-5.375-2.039-7.414,0l-5.884,5.884c-5.242-3.995-11.513-6.686-18.359-7.607v-8.318
		c0-2.884-2.359-5.243-5.243-5.243v23.41c15.892,0,28.775,12.884,28.775,28.775h-0.001c0,15.893-12.883,28.775-28.774,28.775v23.41
		c2.884,0,5.243-2.359,5.243-5.242v-8.318c6.847-0.923,13.117-3.612,18.359-7.607l5.884,5.883c2.039,2.04,5.376,2.04,7.414,0
		c2.039-2.038,2.039-5.375,0-7.414l-5.883-5.884c3.995-5.242,6.685-11.513,7.606-18.359h8.318c2.884,0,5.243-2.359,5.243-5.243
		C105.814,102.921,103.455,100.563,100.571,100.563z"/>
	<path style="fill:#FDBB47;" d="M24.853,105.805h0.001c0-15.892,12.883-28.775,28.774-28.775v-23.41
		c-2.884,0-5.242,2.359-5.242,5.243v8.318c-6.848,0.922-13.118,3.612-18.36,7.607l-5.884-5.884c-2.039-2.039-5.375-2.039-7.414,0
		c-2.039,2.039-2.039,5.375,0,7.414l5.884,5.884c-3.995,5.242-6.685,11.513-7.607,18.36H6.686c-2.884,0-5.243,2.358-5.243,5.242
		c0,2.884,2.36,5.243,5.243,5.243h8.318c0.922,6.847,3.612,13.117,7.607,18.359l-5.884,5.884c-2.039,2.039-2.039,5.376,0,7.414
		c2.039,2.04,5.375,2.04,7.414,0l5.884-5.883c5.242,3.995,11.513,6.685,18.36,7.607v8.318c0,2.883,2.358,5.242,5.242,5.242v-23.41
		C37.737,134.58,24.853,121.697,24.853,105.805z"/>
	<path style="fill:#493633;" d="M45.139,105.805c0,4.688,3.801,8.489,8.489,8.489V97.315
		C48.94,97.315,45.139,101.116,45.139,105.805z"/>
	<path style="fill:#342421;" d="M62.118,105.805c0-4.688-3.801-8.489-8.489-8.489v16.979
		C58.317,114.294,62.118,110.493,62.118,105.805z"/>
	<path style="fill:#F6E7AA;" d="M109.756,59.939c0,5.61,4.549,10.158,10.158,10.158V49.781
		C114.305,49.781,109.756,54.33,109.756,59.939z"/>
	<path style="fill:#F6D276;" d="M130.074,59.939c0-5.609-4.549-10.158-10.159-10.158v20.316
		C125.525,70.098,130.074,65.55,130.074,59.939z"/>
	<path style="fill:#F6D276;" d="M134.427,59.939c0,8.016-6.498,14.512-14.513,14.512v5.748c11.156,0,20.199-9.043,20.199-20.199
		h0.001c0-11.155-9.044-20.199-20.2-20.199v5.627C127.929,45.428,134.427,51.925,134.427,59.939z"/>
	<path style="fill:#F6E7AA;" d="M99.716,60L99.716,60c-0.001,11.156,9.043,20.199,20.198,20.199v-5.748
		c-8.015,0-14.512-6.496-14.512-14.512c0-8.015,6.497-14.512,14.512-14.512v-5.627C108.759,39.801,99.716,48.845,99.716,60z"/>
	<path style="fill:#F2852A;" d="M134.427,59.939c0-8.015-6.498-14.512-14.513-14.512v4.354c5.61,0,10.159,4.549,10.159,10.158
		c0,5.61-4.549,10.158-10.159,10.158v4.354C127.929,74.451,134.427,67.955,134.427,59.939z"/>
	<path style="fill:#FAA338;" d="M109.756,59.939c0-5.609,4.549-10.158,10.158-10.158v-4.354c-8.015,0-14.512,6.497-14.512,14.512
		c0,8.016,6.497,14.512,14.512,14.512v-4.354C114.305,70.098,109.756,65.55,109.756,59.939z"/>
	<path style="fill:#FAA338;" d="M152.868,56.32h-5.84c-0.646-4.807-2.535-9.208-5.34-12.888l4.13-4.131
		c1.432-1.431,1.432-3.773,0-5.204c-1.432-1.432-3.773-1.432-5.204,0l-4.131,4.13c-3.68-2.805-8.081-4.692-12.888-5.34v-5.84
		c0-2.023-1.656-3.68-3.681-3.68v16.433c11.156,0,20.2,9.044,20.2,20.199h-0.001c0,11.156-9.043,20.199-20.199,20.199v16.434
		c2.024,0,3.681-1.656,3.681-3.68v-5.84c4.807-0.647,9.208-2.535,12.888-5.34l4.131,4.13c1.431,1.432,3.773,1.432,5.204,0
		c1.432-1.431,1.432-3.773,0-5.204l-4.13-4.131c2.805-3.68,4.693-8.081,5.34-12.888h5.84c2.023,0,3.68-1.656,3.68-3.681
		C156.547,57.977,154.891,56.32,152.868,56.32z"/>
	<path style="fill:#FDBB47;" d="M99.715,60L99.715,60c0.001-11.155,9.044-20.199,20.199-20.199V23.368
		c-2.023,0-3.68,1.656-3.68,3.68v5.84c-4.807,0.647-9.208,2.535-12.888,5.34l-4.13-4.13c-1.432-1.432-3.774-1.432-5.205,0
		c-1.432,1.431-1.432,3.773,0,5.204l4.13,4.131c-2.805,3.68-4.692,8.081-5.34,12.888h-5.839c-2.024,0-3.681,1.656-3.681,3.68
		c0,2.024,1.656,3.681,3.681,3.681h5.839c0.648,4.807,2.535,9.208,5.34,12.888l-4.13,4.131c-1.432,1.431-1.432,3.773,0,5.204
		c1.432,1.432,3.773,1.432,5.205,0l4.13-4.13c3.68,2.805,8.081,4.692,12.888,5.34v5.84c0,2.023,1.656,3.68,3.68,3.68V80.199
		C108.759,80.199,99.715,71.156,99.715,60z"/>
	<path style="fill:#F6E7AA;" d="M58.407,29.97c0-5.146,4.172-9.317,9.317-9.317v-7.208c-9.127,0-16.525,7.399-16.525,16.525
		c0,9.127,7.398,16.525,16.525,16.525v-7.208C62.579,39.287,58.407,35.116,58.407,29.97z"/>
	<path style="fill:#F6D276;" d="M84.249,29.97c0-9.127-7.398-16.525-16.525-16.525v7.208c5.146,0,9.317,4.172,9.317,9.317
		c0,5.146-4.172,9.317-9.317,9.317v7.208C76.851,46.495,84.249,39.097,84.249,29.97z"/>
	<path style="fill:#FDBB47;" d="M40.765,32.98h4.777c0.529,3.933,2.074,7.534,4.369,10.544l-3.379,3.379
		c-1.171,1.171-1.171,3.088,0,4.259c1.171,1.171,3.087,1.171,4.258,0l3.379-3.379c3.011,2.294,6.611,3.839,10.544,4.369v4.776
		c0,1.656,1.354,3.011,3.011,3.011V46.495c-9.127,0-16.525-7.398-16.525-16.525c0-9.127,7.398-16.525,16.525-16.525V0
		c-1.656,0-3.011,1.355-3.011,3.011v4.777c-3.933,0.529-7.533,2.074-10.544,4.369L50.79,8.778c-1.171-1.171-3.087-1.171-4.258,0
		s-1.171,3.087,0,4.258l3.378,3.379c-2.294,3.011-3.839,6.611-4.368,10.544h-4.777c-1.656,0-3.011,1.354-3.011,3.011
		C37.754,31.626,39.11,32.98,40.765,32.98z"/>
	<path style="fill:#FAA338;" d="M84.249,29.97c0,9.127-7.398,16.525-16.525,16.525v13.444c1.656,0,3.011-1.354,3.011-3.011v-4.776
		c3.933-0.53,7.533-2.075,10.544-4.369l3.379,3.379c1.171,1.171,3.087,1.171,4.258,0c1.171-1.171,1.171-3.088,0-4.259l-3.378-3.379
		c2.294-3.01,3.839-6.611,4.368-10.544h4.777c1.656,0,3.011-1.354,3.011-3.011c0-1.656-1.355-3.011-3.011-3.011h-4.777
		c-0.529-3.933-2.074-7.533-4.369-10.544l3.379-3.379c1.171-1.171,1.171-3.087,0-4.258s-3.087-1.171-4.258,0l-3.379,3.379
		c-3.011-2.295-6.611-3.84-10.544-4.369V3.011C70.735,1.355,69.38,0,67.724,0v13.444C76.851,13.444,84.249,20.843,84.249,29.97z"/>
	<path style="fill:#FAA338;" d="M58.407,29.97c0,5.146,4.172,9.317,9.317,9.317V20.652C62.579,20.652,58.407,24.824,58.407,29.97z"
		/>
	<path style="fill:#F2852A;" d="M77.041,29.97c0-5.146-4.172-9.317-9.317-9.317v18.635C72.87,39.287,77.041,35.116,77.041,29.97z"/>
</g>
<g>
</g>
<g>
</g>
<g>
</g>
<g>
</g>
<g>
</g>
<g>
</g>
<g>
</g>
<g>
</g>
<g>
</g>
<g>
</g>
<g>
</g>
<g>
</g>
<g>
</g>
<g>
</g>
<g>
</g>
</svg>
