<?xml version="1.0" encoding="iso-8859-1"?>
<!-- Generator: Adobe Illustrator 18.0.0, SVG Export Plug-In . SVG Version: 6.00 Build 0)  -->
<!DOCTYPE svg PUBLIC "-//W3C//DTD SVG 1.1//EN" "http://www.w3.org/Graphics/SVG/1.1/DTD/svg11.dtd">
<svg version="1.1" id="Capa_1" xmlns="http://www.w3.org/2000/svg" xmlns:xlink="http://www.w3.org/1999/xlink" x="0px" y="0px"
	 viewBox="0 0 147.128 147.128" style="enable-background:new 0 0 147.128 147.128;" xml:space="preserve">
<g>
	<path style="fill:#FAA338;" d="M95.118,13.42h5.691c1.614,0,2.923-1.309,2.923-2.923c0-1.613-1.309-2.922-2.923-2.922H90.428v5.845
		H95.118z"/>
	<path style="fill:#F2852A;" d="M90.428,19.265h4.689c1.614,0,2.923-1.309,2.923-2.922c0-1.614-1.308-2.923-2.923-2.923h-4.689
		V19.265z"/>
	<path style="fill:#FAA338;" d="M90.428,25.11h3.719h2.775c1.614,0,2.923-1.309,2.923-2.923c0-1.614-1.309-2.923-2.923-2.923h-1.805
		h-4.689V25.11z"/>
	<path style="fill:#F2852A;" d="M90.428,30.955h3.719c1.613,0,2.922-1.309,2.922-2.923c0-1.613-1.309-2.922-2.922-2.922h-3.719
		V30.955z"/>
	<path style="fill:#FAA338;" d="M90.428,36.8h10.381c1.614,0,2.923-1.309,2.923-2.922c0-1.614-1.309-2.923-2.923-2.923h-6.662
		h-3.719V36.8z"/>
	<polygon style="fill:#342421;" points="88.91,36.8 90.428,36.8 90.428,30.955 90.428,25.11 90.428,19.265 90.428,13.42 
		90.428,7.575 88.91,7.575 81.823,7.575 81.823,36.8 	"/>
	<path style="fill:#342421;" d="M73.565,44.375v38.532c1.773,0,3.225,1.451,3.225,3.226v5.118c0.586,0.079,1.148,0.228,1.719,0.349
		V43.69c-0.826,0.423-1.749,0.685-2.742,0.685H73.565z"/>
	<path style="fill:#493633;" d="M70.338,86.133c0-1.774,1.451-3.226,3.227-3.226V44.375h-2.203c-0.993,0-1.916-0.262-2.742-0.685
		V91.6c0.571-0.121,1.133-0.27,1.719-0.349V86.133z"/>
	<path style="fill:#493633;" d="M68.62,103.649c1.525-0.626,3.193-0.977,4.945-0.977c1.751,0,3.419,0.351,4.944,0.977v-5.624
		c-1.57-0.456-3.227-0.714-4.944-0.714c-1.719,0-3.375,0.258-4.945,0.714V103.649z"/>
	<path style="fill:#F6D276;" d="M82.698,115.721c0-5.044-4.089-9.134-9.133-9.134v4.827c2.378,0,4.306,1.928,4.306,4.307
		c0,2.378-1.928,4.307-4.306,4.307v4.826C78.609,124.854,82.698,120.765,82.698,115.721z"/>
	<path style="fill:#F6E7AA;" d="M69.258,115.721c0-2.379,1.928-4.307,4.307-4.307v-4.827c-5.045,0-9.134,4.09-9.134,9.134
		c0,5.044,4.089,9.133,9.134,9.133v-4.826C71.186,120.027,69.258,118.099,69.258,115.721z"/>
	<path style="fill:#342421;" d="M77.871,115.721c0-2.379-1.928-4.307-4.306-4.307v8.613
		C75.943,120.027,77.871,118.099,77.871,115.721z"/>
	<path style="fill:#493633;" d="M69.258,115.721c0,2.378,1.928,4.307,4.307,4.307v-8.613
		C71.186,111.414,69.258,113.342,69.258,115.721z"/>
	<path style="fill:#F2852A;" d="M82.698,115.721c0,5.044-4.089,9.133-9.133,9.133v3.915c7.205,0,13.047-5.842,13.047-13.048
		c0-5.455-3.35-10.122-8.103-12.071c-1.525-0.626-3.193-0.977-4.944-0.977v3.914C78.609,106.587,82.698,110.677,82.698,115.721z"/>
	<path style="fill:#FAA338;" d="M60.516,115.721c0,7.206,5.842,13.048,13.049,13.048v-3.915c-5.045,0-9.134-4.089-9.134-9.133
		c0-5.044,4.089-9.134,9.134-9.134v-3.914c-1.752,0-3.42,0.351-4.945,0.977C63.867,105.598,60.516,110.266,60.516,115.721z"/>
	<path style="fill:#FAA338;" d="M57.951,22.188c0,4.063,3.293,7.354,7.355,7.354v-2.206c-2.844,0-5.148-2.305-5.148-5.148
		c0-2.844,2.305-5.149,5.148-5.149v-2.207C61.244,14.832,57.951,18.125,57.951,22.188z"/>
	<path style="fill:#FDBB47;" d="M55.859,115.018c0-8.061,5.392-14.851,12.761-16.992c1.57-0.456,3.227-0.714,4.945-0.714V82.907
		c-1.775,0-3.227,1.451-3.227,3.226v5.118c-0.586,0.079-1.147,0.228-1.719,0.349c-3.537,0.744-6.801,2.217-9.578,4.333l-3.62-3.62
		c-1.255-1.255-3.308-1.255-4.563,0c-1.255,1.254-1.255,3.308,0,4.562l3.62,3.621c-2.458,3.225-4.113,7.083-4.681,11.297H44.68
		c-1.774,0-3.227,1.451-3.227,3.226c0,1.774,1.452,3.226,3.227,3.226h5.118c0.567,4.214,2.223,8.072,4.681,11.297l-3.62,3.621
		c-1.255,1.254-1.255,3.308,0,4.561c1.255,1.255,3.308,1.255,4.563,0l3.62-3.62c3.226,2.459,7.084,4.113,11.297,4.682v5.118
		c0,1.773,1.451,3.226,3.227,3.226v-14.404C63.786,132.724,55.859,124.796,55.859,115.018z"/>
	<path style="fill:#FAA338;" d="M102.449,111.792h-5.118c-0.567-4.214-2.223-8.072-4.682-11.297l3.621-3.621
		c1.254-1.254,1.254-3.308,0-4.562c-1.255-1.255-3.308-1.255-4.563,0l-3.62,3.62c-2.777-2.116-6.041-3.589-9.578-4.333
		c-0.571-0.121-1.133-0.27-1.719-0.349v-5.118c0-1.774-1.452-3.226-3.225-3.226v14.404c1.718,0,3.374,0.258,4.944,0.714
		c7.369,2.142,12.761,8.932,12.761,16.992c0,9.778-7.927,17.706-17.705,17.706v14.404c1.773,0,3.225-1.452,3.225-3.226v-5.118
		c4.213-0.568,8.071-2.223,11.297-4.682l3.62,3.62c1.255,1.255,3.308,1.255,4.563,0c1.254-1.254,1.254-3.308,0-4.561l-3.62-3.621
		c2.458-3.225,4.113-7.083,4.681-11.297h5.118c1.774,0,3.226-1.451,3.226-3.226C105.674,113.243,104.223,111.792,102.449,111.792z"
		/>
	<path style="fill:#FAA338;" d="M65.306,31.1c-4.922,0-8.912-3.99-8.912-8.912c0-4.922,3.99-8.912,8.912-8.912v-7.22
		c0-0.01,0.003-0.02,0.003-0.03c-0.001,0-0.002,0-0.003,0c-0.894,0-1.624,0.73-1.624,1.624v2.576
		c-2.12,0.285-4.063,1.118-5.686,2.355l-1.822-1.822c-0.632-0.631-1.665-0.631-2.297,0c-0.631,0.632-0.631,1.665,0,2.297
		l1.822,1.822c-1.237,1.623-2.07,3.565-2.355,5.686h-2.576c-0.894,0-1.624,0.73-1.624,1.624c0,0.892,0.73,1.624,1.624,1.624h2.576
		c0.285,2.12,1.118,4.063,2.355,5.685l-1.822,1.822c-0.631,0.632-0.631,1.665,0,2.297c0.632,0.631,1.665,0.631,2.297,0l1.822-1.822
		c1.623,1.237,3.565,2.07,5.686,2.355v2.576c0,0.893,0.73,1.624,1.624,1.624c0.001,0,0.002-0.001,0.003-0.001
		c0-0.01-0.003-0.019-0.003-0.029V31.1z"/>
	<path style="fill:#FAA338;" d="M73.741,6.037c2.225,0,4.028,1.804,4.028,4.028V34.31c0,2.225-1.804,4.028-4.028,4.028h-0.176v6.037
		h2.202c0.993,0,1.916-0.262,2.742-0.685c1.959-1.003,3.313-3.02,3.313-5.371V36.8V7.575v-1.52C81.823,2.711,79.112,0,75.767,0
		h-2.202v6.037H73.741z"/>
	<path style="fill:#FDBB47;" d="M73.565,44.375v-6.037h-0.177c-2.225,0-4.028-1.804-4.028-4.028V10.065
		c0-2.225,1.804-4.028,4.028-4.028h0.177V0h-2.203c-3.334,0-6.036,2.695-6.053,6.025c0,0.011-0.003,0.02-0.003,0.03v7.22v1.557
		v2.207v10.297v2.206V31.1v7.22c0,0.01,0.003,0.019,0.003,0.029c0.012,2.34,1.36,4.343,3.311,5.342
		c0.826,0.423,1.749,0.685,2.742,0.685H73.565z"/>
	<path style="fill:#F6E7AA;" d="M73.388,6.037c-2.225,0-4.028,1.804-4.028,4.028V34.31c0,2.225,1.804,4.028,4.028,4.028h0.177V6.037
		H73.388z"/>
	<path style="fill:#F6D276;" d="M77.769,34.31V10.065c0-2.225-1.804-4.028-4.028-4.028h-0.176v32.301h0.176
		C75.965,38.338,77.769,36.534,77.769,34.31z"/>
</g>
<g>
</g>
<g>
</g>
<g>
</g>
<g>
</g>
<g>
</g>
<g>
</g>
<g>
</g>
<g>
</g>
<g>
</g>
<g>
</g>
<g>
</g>
<g>
</g>
<g>
</g>
<g>
</g>
<g>
</g>
</svg>
