<?xml version="1.0" encoding="iso-8859-1"?>
<!-- Generator: Adobe Illustrator 18.0.0, SVG Export Plug-In . SVG Version: 6.00 Build 0)  -->
<!DOCTYPE svg PUBLIC "-//W3C//DTD SVG 1.1//EN" "http://www.w3.org/Graphics/SVG/1.1/DTD/svg11.dtd">
<svg version="1.1" id="Capa_1" xmlns="http://www.w3.org/2000/svg" xmlns:xlink="http://www.w3.org/1999/xlink" x="0px" y="0px"
	 viewBox="0 0 170.91 170.91" style="enable-background:new 0 0 170.91 170.91;" xml:space="preserve">
<g>
	<path style="fill:#FDBB47;" d="M66.296,60.041c0-10.646,8.631-19.277,19.277-19.277V25.08c-1.932,0-3.513,1.581-3.513,3.512v5.573
		c-4.586,0.618-8.787,2.42-12.299,5.096l-3.942-3.941c-1.366-1.366-3.601-1.366-4.967,0c-1.366,1.366-1.366,3.601,0,4.967
		l3.941,3.942c-2.677,3.512-4.479,7.712-5.097,12.3h-5.572c-1.932,0-3.513,1.58-3.513,3.512c0,0.065,0.017,0.126,0.02,0.19
		C55.289,60.079,60.469,60.04,66.296,60.041L66.296,60.041z"/>
	<path style="fill:#FAA338;" d="M104.85,60.041L104.85,60.041c5.826,0,11.007,0.038,15.664,0.19c0.003-0.064,0.02-0.125,0.02-0.19
		c0-1.932-1.581-3.512-3.513-3.512h-5.572c-0.618-4.587-2.421-8.788-5.097-12.3l3.941-3.942c1.366-1.366,1.366-3.601,0-4.967
		c-1.366-1.366-3.602-1.366-4.968,0l-3.941,3.941c-3.512-2.676-7.712-4.479-12.3-5.096v-5.573c0-1.932-1.58-3.512-3.512-3.512
		v15.683C96.219,40.763,104.85,49.394,104.85,60.041z"/>
	<path style="fill:#F2852A;" d="M85.573,46.993v3.915c5.044,0,9.134,4.089,9.134,9.133c0,0.008-0.003,0.015-0.003,0.023
		c1.335-0.004,2.64-0.008,3.916-0.012c0-0.004,0.001-0.008,0.001-0.012C98.621,52.835,92.779,46.993,85.573,46.993z"/>
	<path style="fill:#FAA338;" d="M85.573,50.907v-3.915c-7.206,0-13.048,5.842-13.048,13.048c0,0.004,0.001,0.008,0.001,0.012
		c1.276,0.004,2.581,0.008,3.916,0.012c0-0.008-0.003-0.016-0.003-0.023C76.439,54.996,80.529,50.907,85.573,50.907z"/>
	<path style="fill:#493633;" d="M78.129,76.954c0-4.111,3.333-7.444,7.444-7.444V60.08c-3.195,0-6.225-0.007-9.131-0.016
		c-1.335-0.004-2.64-0.008-3.916-0.012c-2.154-0.006-4.233-0.011-6.23-0.011c-5.826-0.001-11.007,0.037-15.664,0.189
		c-18.869,0.618-29.129,3.135-38.626,12.746c9.531,6.257-21.006,29.357,6.807,55.419c26.345,24.687,47.871-3.685,50.525-8.076
		c1.781-2.948,4.763-3.292,6.798-2.083c1.129-3.021,1.683-5.53,1.942-6.784c1.11-5.372,4.441-9.244,7.495-9.244V84.398
		C81.462,84.398,78.129,81.065,78.129,76.954z M44.075,123.484c-13.952,0-25.263-11.31-25.263-25.263
		c0-13.952,11.311-25.263,25.263-25.263c13.951,0,25.263,11.311,25.263,25.263C69.338,112.174,58.026,123.484,44.075,123.484z"/>
	<path style="fill:#342421;" d="M101.57,120.321c2.654,4.391,24.181,32.763,50.525,8.076c27.813-26.063-2.725-49.162,6.807-55.419
		c0.053-0.035,0.113-0.04,0.167-0.068c-9.477-9.553-19.731-12.061-38.555-12.678c-4.657-0.152-9.838-0.191-15.664-0.189
		c-1.998,0-4.077,0.005-6.23,0.011c-1.276,0.004-2.581,0.008-3.916,0.012c-2.907,0.009-5.936,0.016-9.131,0.016v9.429
		c4.111,0,7.444,3.333,7.444,7.444c0,4.111-3.333,7.444-7.444,7.444v17.812c3.054,0,6.385,3.873,7.495,9.244
		c0.257,1.24,0.801,3.708,1.905,6.684C97,117.064,99.844,117.466,101.57,120.321z M94.415,98.221c0-1.774,1.452-3.226,3.227-3.226
		h5.118c0.567-4.213,2.223-8.071,4.681-11.297l-3.62-3.62c-1.255-1.255-1.255-3.308,0-4.563c1.254-1.254,3.308-1.254,4.563,0
		l3.62,3.621c3.226-2.459,7.084-4.114,11.297-4.681v-5.118c0-1.774,1.451-3.226,3.226-3.226s3.227,1.452,3.227,3.226v5.118
		c4.213,0.567,8.07,2.223,11.297,4.681l3.62-3.621c1.255-1.254,3.308-1.254,4.562,0c1.255,1.255,1.255,3.308,0,4.563l-3.62,3.62
		c2.458,3.226,4.114,7.084,4.682,11.297h5.118c1.773,0,3.226,1.452,3.226,3.226c0,1.774-1.451,3.226-3.226,3.226h-5.119
		c-0.566,4.213-2.223,8.071-4.681,11.297l3.62,3.621c1.255,1.254,1.255,3.308,0,4.562c-1.254,1.254-3.307,1.254-4.562,0l-3.62-3.621
		c-3.227,2.458-7.084,4.114-11.297,4.681v5.119c0,1.774-1.452,3.226-3.227,3.226s-3.226-1.452-3.226-3.226v-5.119
		c-4.214-0.567-8.071-2.223-11.297-4.681l-3.62,3.621c-1.255,1.254-3.308,1.254-4.563,0s-1.255-3.308,0-4.562l3.62-3.621
		c-2.458-3.226-4.113-7.084-4.681-11.297h-5.118C95.867,101.447,94.415,99.995,94.415,98.221z"/>
	<path style="fill:#F6D276;" d="M126.525,107.354c5.044,0,9.134-4.089,9.134-9.133c0-5.044-4.09-9.133-9.134-9.133
		c-5.044,0-9.133,4.089-9.133,9.133C117.392,103.265,121.481,107.354,126.525,107.354z M126.525,92.997
		c2.885,0,5.224,2.339,5.224,5.224c0,2.885-2.339,5.224-5.224,5.224s-5.224-2.339-5.224-5.224
		C121.302,95.336,123.64,92.997,126.525,92.997z"/>
	<path style="fill:#F6D276;" d="M126.525,115.926c9.778,0,17.706-7.927,17.706-17.706c0-9.778-7.928-17.706-17.706-17.706
		s-17.705,7.927-17.705,17.706h-0.001C108.819,108,116.747,115.926,126.525,115.926z M126.525,85.173
		c7.206,0,13.048,5.842,13.048,13.048c0,7.207-5.842,13.048-13.048,13.048c-7.206,0-13.048-5.841-13.048-13.048
		C113.477,91.015,119.319,85.173,126.525,85.173z"/>
	<path style="fill:#F6E7AA;" d="M44.075,80.537c-9.767,0-17.684,7.918-17.684,17.684c0,9.767,7.917,17.684,17.684,17.684
		s17.684-7.917,17.684-17.684C61.759,88.455,53.842,80.537,44.075,80.537z M44.075,111.105c-7.116,0-12.884-5.768-12.884-12.884
		c0-7.115,5.768-12.884,12.884-12.884c7.115,0,12.884,5.769,12.884,12.884C56.959,105.337,51.19,111.105,44.075,111.105z"/>
	<path style="fill:#F6E7AA;" d="M44.075,89.202c-4.981,0-9.019,4.038-9.019,9.019c0,4.981,4.037,9.019,9.019,9.019
		c4.98,0,9.019-4.038,9.019-9.019C53.094,93.24,49.055,89.202,44.075,89.202z M44.075,102.334c-2.271,0-4.113-1.842-4.113-4.113
		c0-2.271,1.842-4.113,4.113-4.113s4.113,1.842,4.113,4.113C48.188,100.492,46.346,102.334,44.075,102.334z"/>
	<path style="fill:#F2852A;" d="M126.525,111.269c7.206,0,13.048-5.841,13.048-13.048c0-7.206-5.842-13.048-13.048-13.048
		c-7.206,0-13.048,5.842-13.048,13.048C113.477,105.427,119.319,111.269,126.525,111.269z M126.525,89.088
		c5.044,0,9.134,4.089,9.134,9.133c0,5.044-4.09,9.133-9.134,9.133c-5.044,0-9.133-4.089-9.133-9.133
		C117.392,93.177,121.481,89.088,126.525,89.088z"/>
	<path style="fill:#FDBB47;" d="M44.075,72.958c-13.952,0-25.263,11.311-25.263,25.263c0,13.953,11.311,25.263,25.263,25.263
		c13.951,0,25.263-11.31,25.263-25.263C69.338,84.269,58.026,72.958,44.075,72.958z M44.075,115.905
		c-9.767,0-17.684-7.917-17.684-17.684c0-9.766,7.917-17.684,17.684-17.684s17.684,7.918,17.684,17.684
		C61.759,107.988,53.842,115.905,44.075,115.905z"/>
	<path style="fill:#FAA338;" d="M44.075,85.337c-7.116,0-12.884,5.769-12.884,12.884c0,7.116,5.768,12.884,12.884,12.884
		c7.115,0,12.884-5.768,12.884-12.884C56.959,91.106,51.19,85.337,44.075,85.337z M44.075,107.24c-4.981,0-9.019-4.038-9.019-9.019
		c0-4.981,4.037-9.019,9.019-9.019c4.98,0,9.019,4.038,9.019,9.019C53.094,103.202,49.055,107.24,44.075,107.24z"/>
	<path style="fill:#FAA338;" d="M102.76,101.447c0.567,4.213,2.223,8.071,4.681,11.297l-3.62,3.621
		c-1.255,1.254-1.255,3.308,0,4.562s3.308,1.254,4.563,0l3.62-3.621c3.226,2.458,7.083,4.114,11.297,4.681v5.119
		c0,1.774,1.451,3.226,3.226,3.226s3.227-1.452,3.227-3.226v-5.119c4.213-0.567,8.07-2.223,11.297-4.681l3.62,3.621
		c1.255,1.254,3.308,1.254,4.562,0c1.255-1.254,1.255-3.308,0-4.562l-3.62-3.621c2.458-3.226,4.114-7.084,4.681-11.297h5.119
		c1.774,0,3.226-1.452,3.226-3.226c0-1.774-1.452-3.226-3.226-3.226h-5.118c-0.567-4.213-2.224-8.071-4.682-11.297l3.62-3.62
		c1.255-1.255,1.255-3.308,0-4.563c-1.254-1.254-3.307-1.254-4.562,0l-3.62,3.621c-3.227-2.459-7.084-4.114-11.297-4.681v-5.118
		c0-1.774-1.452-3.226-3.227-3.226s-3.226,1.452-3.226,3.226v5.118c-4.213,0.567-8.071,2.223-11.297,4.681l-3.62-3.621
		c-1.255-1.254-3.309-1.254-4.563,0c-1.255,1.255-1.255,3.308,0,4.563l3.62,3.62c-2.458,3.226-4.113,7.084-4.681,11.297h-5.118
		c-1.774,0-3.227,1.452-3.227,3.226c0,1.774,1.452,3.226,3.227,3.226H102.76z M108.82,98.221c0-9.778,7.927-17.706,17.705-17.706
		s17.706,7.927,17.706,17.706c0,9.779-7.928,17.706-17.706,17.706S108.819,108,108.82,98.221L108.82,98.221z"/>
	<circle style="fill:#342421;" cx="126.525" cy="98.221" r="5.224"/>
	<path style="fill:#FAA338;" d="M89.577,76.954c0,2.211-1.793,4.004-4.004,4.004v3.44c4.111,0,7.444-3.333,7.444-7.444
		c0-4.111-3.333-7.444-7.444-7.444v3.44C87.784,72.95,89.577,74.742,89.577,76.954z"/>
	<path style="fill:#FDBB47;" d="M78.129,76.954c0,4.111,3.333,7.444,7.444,7.444v-3.44c-2.212,0-4.004-1.793-4.004-4.004
		c0-2.211,1.792-4.004,4.004-4.004v-3.44C81.462,69.509,78.129,72.842,78.129,76.954z"/>
	<path style="fill:#F6D276;" d="M89.577,76.954c0-2.211-1.793-4.004-4.004-4.004v8.008C87.784,80.958,89.577,79.165,89.577,76.954z"
		/>
	<path style="fill:#F6E7AA;" d="M81.569,76.954c0,2.211,1.792,4.004,4.004,4.004V72.95C83.361,72.95,81.569,74.742,81.569,76.954z"
		/>
	<circle style="fill:#493633;" cx="44.075" cy="98.221" r="4.113"/>
	<path style="fill:#FDBB47;" d="M69.338,120.321c-2.654,4.391-24.181,32.763-50.525,8.076C-9,102.334,21.537,79.235,12.006,72.977
		c-6.825-4.481-25.725,41.471,5.09,63.701c30.814,22.23,57.945-1.568,61.033-13.195c0.631-2.374-0.388-4.292-1.993-5.246
		C74.1,117.029,71.119,117.373,69.338,120.321z"/>
	<path style="fill:#FAA338;" d="M159.069,72.909c-0.054,0.029-0.114,0.033-0.167,0.068c-9.531,6.257,21.006,29.357-6.807,55.419
		c-26.345,24.687-47.871-3.685-50.525-8.076c-1.726-2.855-4.57-3.257-6.597-2.183c-1.718,0.91-2.85,2.876-2.194,5.346
		c3.088,11.627,30.219,35.425,61.033,13.195C184.387,114.621,166.025,69.238,159.069,72.909z"/>
</g>
<g>
</g>
<g>
</g>
<g>
</g>
<g>
</g>
<g>
</g>
<g>
</g>
<g>
</g>
<g>
</g>
<g>
</g>
<g>
</g>
<g>
</g>
<g>
</g>
<g>
</g>
<g>
</g>
<g>
</g>
</svg>
