<?xml version="1.0" encoding="iso-8859-1"?>
<!-- Generator: Adobe Illustrator 18.0.0, SVG Export Plug-In . SVG Version: 6.00 Build 0)  -->
<!DOCTYPE svg PUBLIC "-//W3C//DTD SVG 1.1//EN" "http://www.w3.org/Graphics/SVG/1.1/DTD/svg11.dtd">
<svg version="1.1" id="Capa_1" xmlns="http://www.w3.org/2000/svg" xmlns:xlink="http://www.w3.org/1999/xlink" x="0px" y="0px"
	 viewBox="0 0 173.39 173.39" style="enable-background:new 0 0 173.39 173.39;" xml:space="preserve">
<g>
	<path style="fill:#FAA338;" d="M86.694,136.872h65.606c5.36,0,9.706-4.346,9.706-9.707H86.694V136.872z"/>
	<path style="fill:#FDBB47;" d="M11.382,127.165c0,5.361,4.346,9.707,9.707,9.707h65.605v-9.707H11.382z"/>
	<path style="fill:#FDBB47;" d="M86.694,36.529c-0.15-0.001-0.3-0.012-0.451-0.012c0.151,0,0.301,0.016,0.451,0.019V36.529z"/>
	<path style="fill:#FAA338;" d="M128.708,105.732h26.75c0-38.075-30.746-68.959-68.764-69.203v0.007
		C109.938,36.933,128.708,67.753,128.708,105.732z M136.896,99.164c0,1.533-1.243,2.775-2.776,2.775s-2.776-1.242-2.776-2.775
		s1.243-2.776,2.776-2.776S136.896,97.631,136.896,99.164z M130.887,75.914c1.534,0,2.776,1.243,2.776,2.776
		c0,1.533-1.242,2.775-2.776,2.775c-1.533,0-2.775-1.242-2.775-2.775C128.111,77.157,129.354,75.914,130.887,75.914z
		 M123.299,55.586c1.533,0,2.775,1.243,2.775,2.776s-1.242,2.776-2.775,2.776c-1.534,0-2.776-1.243-2.776-2.776
		S121.765,55.586,123.299,55.586z"/>
	<path style="fill:#FDBB47;" d="M86.243,36.518c-38.226,0-69.215,30.988-69.215,69.215h26.75
		C43.778,67.506,62.791,36.518,86.243,36.518z M49.683,55.586c1.532,0,2.775,1.243,2.775,2.776s-1.243,2.776-2.775,2.776
		c-1.534,0-2.776-1.243-2.776-2.776S48.148,55.586,49.683,55.586z M38.861,101.939c-1.533,0-2.776-1.242-2.776-2.775
		s1.243-2.776,2.776-2.776s2.776,1.243,2.776,2.776S40.395,101.939,38.861,101.939z M39.317,78.69c0-1.533,1.242-2.776,2.775-2.776
		s2.776,1.243,2.776,2.776c0,1.533-1.243,2.775-2.776,2.775S39.317,80.224,39.317,78.69z"/>
	<path style="fill:#FAA338;" d="M43.778,105.732h4.559c0-2.12,1.735-3.854,3.854-3.854h6.114c0.678-5.033,2.654-9.642,5.591-13.495
		l-4.324-4.324c-1.499-1.499-1.499-3.951,0-5.449c1.498-1.499,3.951-1.499,5.45,0l4.324,4.324c0.309-0.235,0.651-0.424,0.969-0.646
		c2.35-26.686,8.593-45.771,15.928-45.771C62.791,36.518,43.778,67.506,43.778,105.732z"/>
	<path style="fill:#F2852A;" d="M103.168,105.732h4.677c0-5.205-1.889-9.964-5.007-13.648
		C103.054,96.497,103.168,101.06,103.168,105.732z"/>
	<path style="fill:#F2852A;" d="M86.694,36.537v0.054c7.08,0.763,13.077,19.257,15.42,45.059c0.65,0.417,1.314,0.817,1.928,1.285
		l4.325-4.324c1.499-1.499,3.95-1.499,5.449,0c1.499,1.498,1.499,3.95,0,5.449l-4.324,4.324c2.937,3.854,4.914,8.462,5.592,13.495
		h6.113c2.119,0,3.854,1.733,3.854,3.854h3.656C128.708,67.753,109.938,36.933,86.694,36.537z"/>
	<path style="fill:#FAA338;" d="M86.694,36.537c-0.15-0.003-0.3-0.019-0.451-0.019c0.152,0,0.301,0.057,0.451,0.073V36.537z"/>
	<path style="fill:#FAA338;" d="M65.545,105.732h3.773c0-4.239,0.098-8.383,0.276-12.411
		C67.059,96.81,65.545,101.089,65.545,105.732z"/>
	<path style="fill:#FAA338;" d="M86.694,84.582v5.564c8.607,0,15.586,6.978,15.586,15.586h0.888c0-4.673-0.114-9.235-0.33-13.648
		C98.958,87.5,93.17,84.582,86.694,84.582z"/>
	<path style="fill:#FDBB47;" d="M86.694,90.146v-5.564c-7.037,0-13.255,3.451-17.1,8.739c-0.179,4.028-0.276,8.172-0.276,12.411
		h1.79C71.108,97.124,78.086,90.146,86.694,90.146z"/>
	<path style="fill:#FDBB47;" d="M75.784,105.732h10.91v-10.91C80.669,94.822,75.784,99.707,75.784,105.732z"/>
	<path style="fill:#FAA338;" d="M86.694,94.822v10.91h10.91C97.604,99.707,92.72,94.822,86.694,94.822z"/>
	<path style="fill:#FDBB47;" d="M70.315,82.288c3.654-2.558,7.896-4.321,12.525-4.945v-6.113c0-2.12,1.734-3.854,3.854-3.854V36.59
		c-0.15-0.016-0.299-0.073-0.451-0.073C78.908,36.518,72.665,55.603,70.315,82.288z"/>
	<path style="fill:#FAA338;" d="M90.548,71.229v6.113c4.23,0.57,8.132,2.102,11.566,4.307c-2.343-25.802-8.34-44.296-15.42-45.059
		v30.786C88.813,67.376,90.548,69.109,90.548,71.229z"/>
	<circle style="fill:#493633;" cx="38.861" cy="99.164" r="2.776"/>
	<circle style="fill:#493633;" cx="42.093" cy="78.69" r="2.776"/>
	<circle style="fill:#493633;" cx="49.683" cy="58.362" r="2.776"/>
	<circle style="fill:#342421;" cx="134.119" cy="99.164" r="2.776"/>
	<circle style="fill:#342421;" cx="130.887" cy="78.69" r="2.776"/>
	<circle style="fill:#342421;" cx="123.299" cy="58.362" r="2.776"/>
	<path style="fill:#342421;" d="M163.683,105.732h-8.225h-26.75h-3.656h-17.207h-4.677h-0.888h-4.676h-10.91v21.433h75.313h1.676
		c5.361,0,9.707-4.346,9.707-9.706v-2.02C173.39,110.078,169.044,105.732,163.683,105.732z"/>
	<path style="fill:#493633;" d="M86.694,105.732h-10.91h-4.676h-1.79h-3.773h-0.001H48.337h-4.559h-26.75H9.707
		c-5.361,0-9.707,4.346-9.707,9.707v2.02c0,5.36,4.346,9.706,9.707,9.706h1.675h75.313V105.732z"/>
	<path style="fill:#F6D276;" d="M86.694,94.822v-4.676c-8.608,0-15.586,6.978-15.586,15.586h4.676
		C75.784,99.707,80.669,94.822,86.694,94.822z"/>
	<path style="fill:#F2B350;" d="M86.694,90.146v4.676c6.025,0,10.91,4.885,10.91,10.91h4.676
		C102.28,97.124,95.302,90.146,86.694,90.146z"/>
	<path style="fill:#F6E7AA;" d="M86.694,84.582V67.376c-2.119,0-3.854,1.733-3.854,3.854v6.113
		c-4.629,0.624-8.871,2.388-12.525,4.945c-0.317,0.223-0.66,0.411-0.969,0.646l-4.324-4.324c-1.499-1.499-3.952-1.499-5.45,0
		c-1.499,1.498-1.499,3.95,0,5.449l4.324,4.324c-2.937,3.854-4.913,8.462-5.591,13.495h-6.114c-2.119,0-3.854,1.733-3.854,3.854
		h17.207h0.001c0-4.644,1.514-8.923,4.05-12.411C73.439,88.033,79.657,84.582,86.694,84.582z"/>
	<path style="fill:#F6D276;" d="M121.197,101.879h-6.113c-0.678-5.033-2.655-9.642-5.592-13.495l4.324-4.324
		c1.499-1.499,1.499-3.951,0-5.449c-1.499-1.499-3.95-1.499-5.449,0l-4.325,4.324c-0.613-0.468-1.277-0.868-1.928-1.285
		c-3.435-2.205-7.336-3.736-11.566-4.307v-6.113c0-2.12-1.734-3.854-3.854-3.854v17.206c6.476,0,12.264,2.918,16.144,7.502
		c3.118,3.685,5.007,8.443,5.007,13.648h17.207C125.052,103.612,123.316,101.879,121.197,101.879z"/>
</g>
<g>
</g>
<g>
</g>
<g>
</g>
<g>
</g>
<g>
</g>
<g>
</g>
<g>
</g>
<g>
</g>
<g>
</g>
<g>
</g>
<g>
</g>
<g>
</g>
<g>
</g>
<g>
</g>
<g>
</g>
</svg>
