<?xml version="1.0" encoding="iso-8859-1"?>
<!-- Generator: Adobe Illustrator 18.0.0, SVG Export Plug-In . SVG Version: 6.00 Build 0)  -->
<!DOCTYPE svg PUBLIC "-//W3C//DTD SVG 1.1//EN" "http://www.w3.org/Graphics/SVG/1.1/DTD/svg11.dtd">
<svg version="1.1" id="Capa_1" xmlns="http://www.w3.org/2000/svg" xmlns:xlink="http://www.w3.org/1999/xlink" x="0px" y="0px"
	 viewBox="0 0 144.431 144.431" style="enable-background:new 0 0 144.431 144.431;" xml:space="preserve">
<g>
	<path style="fill:#FDBB47;" d="M41.23,129.769c-1.489,3.702,0.319,7.949,4.021,9.438c3.702,1.49,7.949-0.319,9.439-4.021
		l0.916-2.277c-4.731-1.292-9.246-3.109-13.464-5.408L41.23,129.769z"/>
	<path style="fill:#FAA338;" d="M91.001,134.821c1.564,3.671,5.848,5.395,9.519,3.83c3.671-1.563,5.396-5.847,3.831-9.518
		l-0.965-2.265c-4.174,2.386-8.644,4.308-13.346,5.694L91.001,134.821z"/>
	<path style="fill:#FDBB47;" d="M9.61,91.002c-3.672,1.564-5.396,5.848-3.831,9.519c1.564,3.671,5.847,5.395,9.519,3.831
		l2.264-0.965c-2.386-4.174-4.308-8.644-5.694-13.346L9.61,91.002z"/>
	<path style="fill:#FAA338;" d="M129.768,103.2c3.702,1.49,7.95-0.319,9.441-4.021c1.489-3.702-0.321-7.949-4.023-9.439
		l-2.276-0.916c-1.292,4.731-3.109,9.247-5.408,13.465L129.768,103.2z"/>
	<path style="fill:#FAA338;" d="M103.2,14.663c1.489-3.702-0.32-7.949-4.021-9.439c-3.702-1.49-7.949,0.32-9.439,4.022l-0.916,2.277
		c4.731,1.292,9.246,3.109,13.464,5.408L103.2,14.663z"/>
	<path style="fill:#FDBB47;" d="M14.662,41.23c-3.701-1.489-7.949,0.32-9.439,4.021c-1.489,3.702,0.321,7.95,4.023,9.439
		l2.276,0.917c1.292-4.732,3.109-9.247,5.408-13.465L14.662,41.23z"/>
	<path style="fill:#FAA338;" d="M134.82,53.429c3.671-1.563,5.395-5.847,3.831-9.518c-1.564-3.672-5.847-5.396-9.518-3.831
		l-2.265,0.965c2.386,4.174,4.308,8.643,5.694,13.346L134.82,53.429z"/>
	<path style="fill:#FDBB47;" d="M53.429,9.61c-1.563-3.671-5.848-5.395-9.518-3.831c-3.671,1.564-5.396,5.847-3.831,9.518
		l0.965,2.264c4.173-2.385,8.644-4.307,13.346-5.694L53.429,9.61z"/>
	<path style="fill:#FAA338;" d="M33.158,22.897l-1.746-1.745c-2.821-2.822-7.439-2.822-10.26,0c-2.822,2.821-2.822,7.438,0,10.26
		l1.745,1.746C25.913,29.357,29.357,25.913,33.158,22.897z"/>
	<path style="fill:#F2852A;" d="M72.216,9.29c2.455,0,4.873,0.155,7.254,0.429V7.256c0-3.99-3.264-7.255-7.254-7.255
		c-0.042,0-0.081,0.012-0.122,0.012v9.281C72.134,9.294,72.175,9.29,72.216,9.29z"/>
	<path style="fill:#FAA338;" d="M72.094,0.013c-3.935,0.067-7.134,3.294-7.134,7.243V9.72c2.343-0.269,4.721-0.42,7.134-0.426V0.013
		z"/>
	<path style="fill:#F2852A;" d="M121.532,33.158l1.746-1.746c2.822-2.821,2.822-7.438,0-10.26c-2.821-2.822-7.438-2.822-10.26,0
		l-1.746,1.745C115.074,25.913,118.518,29.355,121.532,33.158z"/>
	<path style="fill:#F2852A;" d="M134.711,79.471h2.464c3.99,0,7.256-3.265,7.256-7.255c0-3.991-3.266-7.256-7.256-7.256h-2.464
		c0.274,2.383,0.43,4.801,0.43,7.256C135.141,74.671,134.985,77.089,134.711,79.471z"/>
	<path style="fill:#FAA338;" d="M22.897,111.273l-1.745,1.745c-2.822,2.821-2.822,7.438,0,10.261c2.821,2.821,7.439,2.821,10.26,0
		l1.746-1.746C29.357,118.518,25.913,115.075,22.897,111.273z"/>
	<path style="fill:#F2852A;" d="M72.094,135.137v9.281c0.041,0,0.08,0.012,0.122,0.012c3.99,0,7.254-3.265,7.254-7.254v-2.465
		c-2.381,0.274-4.799,0.43-7.254,0.43C72.175,135.141,72.134,135.137,72.094,135.137z"/>
	<path style="fill:#FAA338;" d="M64.96,134.711v2.465c0,3.948,3.199,7.175,7.134,7.242v-9.281
		C69.681,135.132,67.303,134.98,64.96,134.711z"/>
	<path style="fill:#FAA338;" d="M9.72,64.96H7.256C3.266,64.96,0,68.225,0,72.216c0,3.99,3.266,7.255,7.256,7.255H9.72
		c-0.274-2.382-0.43-4.8-0.43-7.255C9.29,69.761,9.445,67.343,9.72,64.96z"/>
	<path style="fill:#F2852A;" d="M111.272,121.533l1.746,1.746c2.821,2.821,7.438,2.821,10.26,0c2.822-2.822,2.822-7.439,0-10.261
		l-1.746-1.745C118.518,115.075,115.074,118.518,111.272,121.533z"/>
	<path style="fill:#493633;" d="M72.094,132.203c-3.259-0.067-5.906-2.742-5.906-6.016v-9.563c-0.283-0.038-0.558-0.099-0.839-0.142
		c-0.552-0.086-1.103-0.171-1.653-0.278c-0.552-0.106-1.095-0.233-1.639-0.359c-0.276-0.064-0.554-0.111-0.831-0.182l-3.57,8.872
		c-1.238,3.075-4.767,4.579-7.843,3.341c-3.075-1.237-4.579-4.767-3.341-7.843l3.57-8.872c-0.024-0.014-0.048-0.03-0.072-0.045
		c-0.482-0.276-0.949-0.575-1.42-0.869c-0.383-0.237-0.773-0.465-1.146-0.713c-0.049-0.032-0.095-0.068-0.144-0.102
		c-0.746-0.499-1.478-1.013-2.187-1.551l-6.76,6.76c-2.344,2.345-6.18,2.345-8.524,0c-2.345-2.344-2.345-6.181,0-8.524l6.765-6.765
		c-0.177-0.233-0.337-0.479-0.51-0.716c-0.324-0.444-0.651-0.887-0.958-1.343c-0.306-0.451-0.592-0.915-0.881-1.378
		c-0.156-0.252-0.327-0.495-0.479-0.75l-8.801,3.749c-3.051,1.3-6.608-0.132-7.908-3.183c-1.3-3.05,0.133-6.608,3.183-7.908
		l8.795-3.746c-0.235-0.859-0.438-1.73-0.623-2.609c-0.012-0.057-0.028-0.112-0.04-0.169c-0.092-0.444-0.158-0.897-0.236-1.347
		c-0.095-0.54-0.197-1.077-0.273-1.621c-0.005-0.029-0.011-0.059-0.016-0.089h-9.563c-3.314,0-6.027-2.712-6.027-6.027
		c0-3.315,2.712-6.028,6.027-6.028h9.564c0.037-0.273,0.095-0.539,0.137-0.811c0.087-0.563,0.175-1.126,0.284-1.688
		c0.104-0.544,0.229-1.079,0.354-1.616c0.065-0.281,0.113-0.564,0.186-0.846l-8.872-3.57c-3.075-1.238-4.58-4.768-3.342-7.844
		c1.237-3.075,4.767-4.579,7.843-3.341l8.872,3.571c0.013-0.022,0.027-0.043,0.04-0.065c0.29-0.507,0.604-0.997,0.914-1.491
		c0.223-0.358,0.436-0.726,0.668-1.076c0.056-0.083,0.117-0.161,0.173-0.244c0.479-0.712,0.97-1.414,1.484-2.092l-6.76-6.761
		c-2.345-2.344-2.345-6.18,0-8.524c2.345-2.344,6.181-2.344,8.524,0l6.766,6.765c0.227-0.173,0.467-0.329,0.697-0.498
		c0.452-0.329,0.902-0.661,1.366-0.974c0.44-0.299,0.895-0.577,1.346-0.86c0.261-0.162,0.513-0.339,0.776-0.496l-3.749-8.801
		c-1.3-3.05,0.133-6.608,3.183-7.908s6.609,0.133,7.908,3.183l3.747,8.795c0.86-0.235,1.732-0.439,2.612-0.624
		c0.056-0.012,0.109-0.027,0.165-0.039c0.443-0.091,0.895-0.157,1.344-0.235c0.541-0.096,1.081-0.198,1.626-0.273
		c0.029-0.004,0.058-0.011,0.087-0.015v-9.564c0-3.274,2.647-5.948,5.906-6.015V9.294c-2.413,0.005-4.791,0.157-7.134,0.426
		c-3.626,0.417-7.157,1.141-10.569,2.148c-4.702,1.387-9.173,3.309-13.346,5.694c-2.769,1.582-5.403,3.366-7.887,5.336
		c-3.802,3.016-7.245,6.459-10.261,10.261c-2.23,2.813-4.237,5.812-5.968,8.985c-2.299,4.218-4.116,8.732-5.408,13.465
		c-0.828,3.032-1.434,6.155-1.802,9.352c-0.274,2.383-0.43,4.801-0.43,7.256c0,2.455,0.155,4.873,0.43,7.255
		c0.416,3.627,1.141,7.158,2.147,10.57c1.387,4.702,3.309,9.172,5.694,13.346c1.582,2.768,3.366,5.402,5.336,7.887
		c3.016,3.802,6.459,7.244,10.261,10.26c2.813,2.23,5.812,4.237,8.985,5.968c4.218,2.299,8.732,4.116,13.464,5.408
		c3.033,0.828,6.156,1.435,9.353,1.802c2.343,0.27,4.721,0.421,7.134,0.426V132.203z"/>
	<path style="fill:#342421;" d="M135.141,72.216c0-2.455-0.155-4.873-0.43-7.256c-0.416-3.626-1.142-7.157-2.147-10.569
		c-1.387-4.703-3.309-9.172-5.694-13.346c-1.582-2.767-3.366-5.403-5.337-7.887c-3.015-3.803-6.458-7.245-10.26-10.261
		c-2.813-2.23-5.812-4.237-8.985-5.967c-4.218-2.299-8.732-4.116-13.464-5.408c-3.033-0.829-6.156-1.435-9.354-1.802
		c-2.381-0.274-4.799-0.429-7.254-0.429c-0.041,0-0.082,0.003-0.122,0.003v2.934c0.041,0,0.08-0.012,0.122-0.012
		c3.314,0,6.027,2.712,6.027,6.027v9.564c0.283,0.038,0.561,0.099,0.842,0.142c0.55,0.086,1.099,0.171,1.648,0.277
		c0.554,0.106,1.1,0.234,1.646,0.361c0.274,0.063,0.55,0.11,0.824,0.181l3.571-8.872c1.237-3.076,4.767-4.58,7.843-3.341
		c3.075,1.238,4.578,4.767,3.341,7.842l-3.571,8.872c0.025,0.015,0.049,0.031,0.074,0.046c0.48,0.275,0.944,0.572,1.413,0.865
		c0.385,0.238,0.777,0.468,1.153,0.717c0.046,0.03,0.09,0.065,0.137,0.097c0.747,0.5,1.481,1.016,2.191,1.555l6.76-6.76
		c2.345-2.344,6.181-2.344,8.525,0c2.344,2.345,2.344,6.181,0,8.524l-6.766,6.766c0.178,0.231,0.337,0.478,0.51,0.713
		c0.324,0.446,0.652,0.89,0.96,1.347c0.305,0.449,0.59,0.912,0.878,1.374c0.157,0.253,0.329,0.497,0.48,0.753l8.802-3.75
		c3.05-1.3,6.608,0.133,7.908,3.183c1.3,3.05-0.133,6.609-3.183,7.908l-8.795,3.747c0.235,0.858,0.438,1.73,0.623,2.609
		c0.012,0.057,0.028,0.112,0.04,0.168c0.091,0.441,0.156,0.892,0.234,1.338c0.096,0.543,0.199,1.085,0.274,1.633
		c0.004,0.029,0.011,0.057,0.015,0.086h9.563c3.315,0,6.029,2.713,6.029,6.028c0,3.316-2.713,6.027-6.029,6.027h-9.563
		c-0.037,0.274-0.095,0.54-0.137,0.813c-0.087,0.563-0.175,1.124-0.284,1.687c-0.104,0.544-0.229,1.08-0.354,1.617
		c-0.065,0.281-0.113,0.563-0.185,0.845l8.871,3.571c3.075,1.237,4.58,4.767,3.342,7.843c-1.238,3.075-4.768,4.579-7.843,3.341
		l-8.872-3.57c-0.013,0.021-0.027,0.042-0.04,0.063c-0.292,0.511-0.608,1.006-0.92,1.503c-0.222,0.354-0.432,0.718-0.661,1.064
		c-0.062,0.092-0.129,0.178-0.191,0.27c-0.474,0.703-0.958,1.397-1.467,2.068l6.76,6.76c2.344,2.344,2.344,6.181,0,8.524
		c-2.344,2.345-6.181,2.345-8.525,0l-6.765-6.765c-0.231,0.177-0.476,0.335-0.71,0.507c-0.447,0.326-0.893,0.654-1.351,0.963
		c-0.446,0.302-0.905,0.585-1.362,0.87c-0.256,0.16-0.504,0.334-0.763,0.488l3.749,8.801c1.3,3.051-0.133,6.609-3.183,7.908
		c-3.05,1.3-6.608-0.133-7.908-3.183l-3.747-8.795c-0.851,0.232-1.713,0.434-2.583,0.617c-0.066,0.014-0.131,0.032-0.196,0.046
		c-0.439,0.091-0.887,0.156-1.33,0.233c-0.545,0.097-1.089,0.199-1.638,0.276c-0.029,0.004-0.058,0.011-0.087,0.015v9.563
		c0,3.315-2.713,6.027-6.027,6.027c-0.042,0-0.081-0.011-0.122-0.012v2.934c0.04,0,0.081,0.004,0.122,0.004
		c2.455,0,4.873-0.155,7.254-0.43c3.627-0.416,7.158-1.141,10.57-2.147c4.702-1.387,9.172-3.309,13.346-5.694
		c2.768-1.582,5.402-3.366,7.887-5.336c3.802-3.016,7.245-6.458,10.26-10.26c2.231-2.813,4.238-5.812,5.969-8.985
		c2.299-4.218,4.116-8.733,5.408-13.465c0.828-3.033,1.435-6.155,1.802-9.353C134.985,77.089,135.141,74.671,135.141,72.216z"/>
	<path style="fill:#F6E7AA;" d="M72.094,104.023c-0.99-0.066-1.786-0.877-1.786-1.883v-1.737c0-1.006,0.796-1.815,1.786-1.883
		V82.623c-5.697-0.067-10.298-4.694-10.298-10.407c0-1.358,0.277-2.647,0.75-3.837l-5.842-4.523
		c-0.886-0.686-1.049-1.971-0.363-2.856c0.686-0.886,1.971-1.049,2.855-0.363l5.568,4.312c1.865-1.912,4.455-3.105,7.329-3.139
		V46.466c-0.99-0.067-1.786-0.877-1.786-1.883v-1.737c0-1.006,0.796-1.816,1.786-1.883v-1.821c-0.018,0-0.035-0.001-0.052-0.001
		c-0.815,0.004-1.617,0.06-2.418,0.122c-0.312,0.024-0.627,0.028-0.938,0.062c-0.655,0.07-1.295,0.189-1.939,0.296
		c-0.452,0.077-0.909,0.129-1.357,0.225c-0.377,0.079-0.741,0.194-1.114,0.286c-3.767,0.935-7.358,2.496-10.58,4.668
		c-3.213,2.175-5.997,4.919-8.27,8.058c-0.229,0.317-0.476,0.616-0.693,0.942c-0.253,0.377-0.47,0.777-0.708,1.165
		c-0.342,0.56-0.693,1.113-1.004,1.698c-0.146,0.274-0.267,0.563-0.405,0.842c-0.357,0.721-0.71,1.446-1.019,2.203
		c-0.121,0.295-0.218,0.603-0.331,0.902c-0.273,0.727-0.536,1.457-0.756,2.191c-0.129,0.437-0.229,0.886-0.342,1.33
		c-0.15,0.596-0.305,1.191-0.421,1.789c-0.119,0.618-0.202,1.248-0.287,1.877c-0.059,0.435-0.13,0.868-0.171,1.303
		c-0.073,0.784-0.103,1.581-0.12,2.38c-0.007,0.304-0.031,0.607-0.029,0.91c0.004,0.813,0.06,1.613,0.122,2.411
		c0.024,0.314,0.028,0.632,0.063,0.944c0.069,0.652,0.188,1.288,0.294,1.929c0.077,0.456,0.13,0.917,0.226,1.368
		c0.078,0.371,0.191,0.729,0.282,1.096c0.935,3.773,2.497,7.372,4.673,10.599c2.178,3.217,4.926,6.004,8.07,8.278
		c0.311,0.225,0.606,0.468,0.928,0.683c0.381,0.256,0.785,0.475,1.177,0.715c0.557,0.34,1.105,0.689,1.688,0.998
		c0.275,0.147,0.565,0.267,0.846,0.407c0.72,0.356,1.443,0.708,2.199,1.017c0.286,0.117,0.584,0.211,0.875,0.32
		c0.739,0.278,1.48,0.546,2.227,0.769c0.426,0.126,0.865,0.225,1.299,0.334c0.605,0.153,1.211,0.31,1.818,0.428
		c0.61,0.118,1.233,0.2,1.854,0.283c0.442,0.061,0.884,0.133,1.326,0.175c0.775,0.072,1.563,0.101,2.354,0.119
		c0.212,0.004,0.424,0.013,0.636,0.02V104.023z M44.305,74.4h-1.737c-1.049,0-1.907-0.858-1.907-1.907
		c0-1.049,0.858-1.907,1.907-1.907h1.737c1.05,0,1.907,0.858,1.907,1.907C46.212,73.542,45.354,74.4,44.305,74.4z"/>
	<path style="fill:#F6D276;" d="M72.216,40.938c1.049,0,1.907,0.859,1.907,1.908v1.737c0,1.049-0.858,1.907-1.907,1.907
		c-0.044,0-0.08-0.021-0.122-0.024v15.343c0.041-0.001,0.079-0.013,0.122-0.013c3.287,0,6.183,1.553,8.093,3.931l9.526-5.928
		c0.951-0.591,2.213-0.298,2.805,0.653c0.591,0.95,0.297,2.213-0.653,2.804l-9.8,6.098c0.263,0.915,0.448,1.862,0.448,2.862
		c0,5.755-4.665,10.42-10.419,10.42c-0.042,0-0.081-0.013-0.122-0.013v15.897c0.042-0.003,0.078-0.024,0.122-0.024
		c1.049,0,1.907,0.858,1.907,1.907v1.737c0,1.049-0.858,1.907-1.907,1.907c-0.044,0-0.08-0.021-0.122-0.024v1.258
		c0.098,0.004,0.196,0.01,0.294,0.01c0.816-0.005,1.62-0.061,2.422-0.122c0.311-0.025,0.624-0.029,0.934-0.063
		c0.658-0.069,1.301-0.189,1.946-0.297c0.449-0.076,0.904-0.128,1.35-0.223c0.381-0.08,0.749-0.196,1.125-0.289
		c3.764-0.936,7.352-2.495,10.571-4.665c3.218-2.179,6.006-4.928,8.281-8.074c0.224-0.311,0.466-0.604,0.68-0.925
		c0.255-0.379,0.475-0.783,0.714-1.174c0.341-0.558,0.69-1.108,1-1.691c0.146-0.274,0.267-0.563,0.405-0.842
		c0.357-0.72,0.709-1.444,1.018-2.2c0.121-0.297,0.219-0.604,0.332-0.905c0.272-0.727,0.536-1.457,0.755-2.19
		c0.13-0.438,0.23-0.888,0.343-1.333c0.15-0.595,0.304-1.188,0.421-1.785c0.119-0.62,0.203-1.251,0.287-1.883
		c0.059-0.433,0.13-0.865,0.171-1.298c0.073-0.785,0.103-1.582,0.12-2.381c0.007-0.303,0.03-0.607,0.029-0.909
		c-0.005-0.815-0.06-1.617-0.122-2.417c-0.025-0.313-0.029-0.627-0.063-0.938c-0.069-0.656-0.189-1.297-0.297-1.941
		c-0.076-0.451-0.128-0.908-0.223-1.355c-0.079-0.377-0.194-0.739-0.286-1.112c-0.935-3.767-2.496-7.36-4.669-10.583
		c-2.175-3.213-4.919-5.997-8.058-8.27c-0.317-0.229-0.616-0.475-0.942-0.693c-0.377-0.253-0.779-0.471-1.167-0.709
		c-0.56-0.342-1.111-0.692-1.696-1.003c-0.274-0.146-0.564-0.268-0.845-0.407c-0.72-0.356-1.443-0.708-2.199-1.017
		c-0.286-0.117-0.585-0.211-0.876-0.32c-0.738-0.278-1.479-0.546-2.226-0.768c-0.427-0.127-0.865-0.225-1.299-0.335
		c-0.605-0.153-1.211-0.31-1.819-0.428c-0.609-0.117-1.231-0.199-1.853-0.283c-0.442-0.06-0.884-0.133-1.326-0.174
		c-0.774-0.072-1.561-0.101-2.35-0.119c-0.294-0.007-0.59-0.027-0.883-0.028v1.821C72.136,40.96,72.172,40.938,72.216,40.938z
		 M100.126,70.586h1.737c1.049,0,1.907,0.858,1.907,1.907c0,1.049-0.858,1.907-1.907,1.907h-1.737c-1.05,0-1.907-0.858-1.907-1.907
		C98.219,71.444,99.076,70.586,100.126,70.586z"/>
	<path style="fill:#F2852A;" d="M111.161,94.389l8.872,3.57c3.075,1.238,6.604-0.266,7.843-3.341
		c1.238-3.076-0.267-6.605-3.342-7.843l-8.871-3.571c0.071-0.281,0.119-0.563,0.185-0.845c-0.995,4.301-2.592,8.367-4.727,12.093
		C111.134,94.431,111.148,94.41,111.161,94.389z"/>
	<path style="fill:#FAA338;" d="M33.27,50.043l-8.872-3.571c-3.076-1.238-6.605,0.266-7.843,3.341
		c-1.238,3.076,0.267,6.605,3.342,7.844l8.872,3.57c-0.072,0.281-0.12,0.564-0.186,0.846c0.995-4.301,2.592-8.367,4.727-12.095
		C33.297,50,33.282,50.021,33.27,50.043z"/>
	<path style="fill:#F2852A;" d="M94.388,33.27l3.571-8.872c1.237-3.075-0.266-6.604-3.341-7.842
		c-3.076-1.238-6.605,0.266-7.843,3.341l-3.571,8.872c-0.274-0.07-0.55-0.117-0.824-0.181c4.297,0.997,8.359,2.593,12.082,4.727
		C94.437,33.301,94.413,33.284,94.388,33.27z"/>
	<path style="fill:#FAA338;" d="M56.606,20.199c-1.299-3.05-4.858-4.482-7.908-3.183s-4.482,4.858-3.183,7.908l3.749,8.801
		c-0.264,0.157-0.516,0.334-0.776,0.496c3.643-2.279,7.621-4.065,11.865-5.227L56.606,20.199z"/>
	<path style="fill:#FAA338;" d="M36.549,45.074c-0.515,0.678-1.005,1.38-1.484,2.092c0.479-0.709,0.972-1.408,1.489-2.087
		L36.549,45.074z"/>
	<path style="fill:#F2852A;" d="M124.231,56.606c3.05-1.299,4.482-4.858,3.183-7.908c-1.3-3.05-4.858-4.482-7.908-3.183l-8.802,3.75
		c-0.151-0.256-0.323-0.5-0.48-0.753c2.272,3.636,4.054,7.605,5.213,11.841L124.231,56.606z"/>
	<path style="fill:#FAA338;" d="M45.073,107.882c0.709,0.538,1.44,1.052,2.187,1.551c-0.742-0.498-1.472-1.015-2.181-1.556
		L45.073,107.882z"/>
	<path style="fill:#FAA338;" d="M50.042,111.161l-3.57,8.872c-1.238,3.076,0.266,6.605,3.341,7.843
		c3.076,1.238,6.604-0.266,7.843-3.341l3.57-8.872c0.277,0.07,0.555,0.117,0.831,0.182c-4.299-0.997-8.362-2.593-12.087-4.729
		C49.994,111.131,50.018,111.147,50.042,111.161z"/>
	<path style="fill:#F2852A;" d="M87.824,124.231c1.3,3.05,4.858,4.482,7.908,3.183c3.05-1.299,4.482-4.857,3.183-7.908l-3.749-8.801
		c0.259-0.154,0.507-0.328,0.763-0.488c-3.639,2.276-7.612,4.06-11.852,5.22L87.824,124.231z"/>
	<path style="fill:#FAA338;" d="M20.199,87.824c-3.05,1.3-4.483,4.858-3.183,7.908c1.3,3.051,4.858,4.482,7.908,3.183l8.801-3.749
		c0.152,0.255,0.323,0.498,0.479,0.75c-2.272-3.635-4.052-7.604-5.211-11.838L20.199,87.824z"/>
	<path style="fill:#FAA338;" d="M72.042,39.141c0.017,0,0.034,0.001,0.052,0.001c0.293,0.001,0.589,0.021,0.883,0.028
		c0.789,0.019,1.575,0.047,2.35,0.119c0.442,0.041,0.884,0.114,1.326,0.174c0.621,0.084,1.243,0.166,1.853,0.283
		c0.608,0.118,1.214,0.274,1.819,0.428c0.434,0.11,0.872,0.208,1.299,0.335c0.746,0.222,1.487,0.489,2.226,0.768
		c0.291,0.109,0.59,0.203,0.876,0.32c0.756,0.309,1.479,0.66,2.199,1.017c0.28,0.14,0.57,0.261,0.845,0.407
		c0.585,0.311,1.137,0.661,1.696,1.003c0.388,0.238,0.79,0.456,1.167,0.709c0.326,0.219,0.625,0.465,0.942,0.693
		c3.139,2.272,5.883,5.057,8.058,8.27c2.173,3.223,3.733,6.815,4.669,10.583c0.092,0.373,0.207,0.735,0.286,1.112
		c0.095,0.447,0.146,0.904,0.223,1.355c0.107,0.645,0.228,1.285,0.297,1.941c0.033,0.311,0.037,0.625,0.063,0.938
		c0.063,0.8,0.117,1.602,0.122,2.417c0.001,0.302-0.022,0.606-0.029,0.909c-0.018,0.799-0.047,1.596-0.12,2.381
		c-0.041,0.433-0.112,0.865-0.171,1.298c-0.084,0.632-0.168,1.263-0.287,1.883c-0.117,0.597-0.271,1.19-0.421,1.785
		c-0.112,0.445-0.213,0.895-0.343,1.333c-0.219,0.733-0.482,1.463-0.755,2.19c-0.113,0.301-0.211,0.608-0.332,0.905
		c-0.309,0.756-0.66,1.48-1.018,2.2c-0.139,0.278-0.259,0.567-0.405,0.842c-0.31,0.583-0.659,1.134-1,1.691
		c-0.239,0.391-0.459,0.795-0.714,1.174c-0.214,0.32-0.456,0.614-0.68,0.925c-2.275,3.146-5.063,5.896-8.281,8.074
		c-3.22,2.17-6.808,3.729-10.571,4.665c-0.376,0.093-0.744,0.209-1.125,0.289c-0.445,0.095-0.9,0.146-1.35,0.223
		c-0.646,0.107-1.288,0.228-1.946,0.297c-0.31,0.033-0.623,0.037-0.934,0.063c-0.802,0.062-1.605,0.117-2.422,0.122
		c-0.098,0-0.196-0.006-0.294-0.01c-0.212-0.007-0.424-0.016-0.636-0.02c0.213,0.005,0.423,0.024,0.636,0.031v26.91
		c0.041,0.001,0.08,0.012,0.122,0.012c3.314,0,6.027-2.712,6.027-6.027v-9.563c0.029-0.004,0.058-0.011,0.087-0.015
		c0.549-0.077,1.093-0.18,1.638-0.276c0.443-0.077,0.891-0.143,1.33-0.233c0.065-0.014,0.13-0.032,0.196-0.046
		c0.87-0.184,1.732-0.385,2.583-0.617c4.239-1.16,8.213-2.943,11.852-5.22c0.457-0.285,0.916-0.568,1.362-0.87
		c0.458-0.309,0.903-0.637,1.351-0.963c0.234-0.172,0.479-0.33,0.71-0.507l6.765,6.765c2.345,2.345,6.182,2.345,8.525,0
		c2.344-2.344,2.344-6.181,0-8.524l-6.76-6.76c0.509-0.671,0.993-1.365,1.467-2.068c0.063-0.092,0.13-0.178,0.191-0.27
		c0.229-0.347,0.439-0.71,0.661-1.064c0.312-0.497,0.628-0.992,0.92-1.503c2.135-3.726,3.731-7.792,4.727-12.093
		c0.125-0.537,0.25-1.073,0.354-1.617c0.109-0.563,0.197-1.124,0.284-1.687c0.042-0.272,0.1-0.538,0.137-0.813h9.563
		c3.316,0,6.029-2.712,6.029-6.027c0-3.315-2.714-6.028-6.029-6.028h-9.563c-0.004-0.029-0.011-0.057-0.015-0.086
		c-0.075-0.548-0.179-1.09-0.274-1.633c-0.078-0.446-0.144-0.897-0.234-1.338c-0.012-0.056-0.028-0.111-0.04-0.168
		c-0.185-0.879-0.388-1.751-0.623-2.609c-1.159-4.235-2.94-8.205-5.213-11.841c-0.288-0.462-0.573-0.925-0.878-1.374
		c-0.308-0.457-0.636-0.9-0.96-1.347c-0.173-0.235-0.332-0.481-0.51-0.713l6.766-6.766c2.344-2.344,2.344-6.18,0-8.524
		c-2.345-2.344-6.181-2.344-8.525,0l-6.76,6.76c-0.71-0.539-1.444-1.055-2.191-1.555c-0.047-0.031-0.091-0.067-0.137-0.097
		c-0.376-0.249-0.769-0.479-1.153-0.717c-0.469-0.293-0.933-0.591-1.413-0.865c-3.723-2.135-7.785-3.73-12.082-4.727
		c-0.547-0.127-1.093-0.255-1.646-0.361c-0.55-0.107-1.099-0.191-1.648-0.277c-0.281-0.043-0.559-0.104-0.842-0.142v-9.564
		c0-3.315-2.713-6.027-6.027-6.027c-0.042,0-0.081,0.012-0.122,0.012v26.91C72.076,39.139,72.06,39.141,72.042,39.141z"/>
	<path style="fill:#FAA338;" d="M39.132,72.216L39.132,72.216c-0.001,0.059,0.008,0.114,0.008,0.174
		c-0.002-0.303,0.022-0.606,0.029-0.91C39.163,71.727,39.132,71.967,39.132,72.216z"/>
	<path style="fill:#FAA338;" d="M44.799,90.736c-2.176-3.226-3.738-6.825-4.673-10.599C41.07,83.973,42.647,87.559,44.799,90.736z"
		/>
	<path style="fill:#FAA338;" d="M53.695,44.799c3.222-2.172,6.813-3.732,10.58-4.668C60.447,41.075,56.868,42.651,53.695,44.799z"/>
	<path style="fill:#FDBB47;" d="M66.188,18.243v9.564c-0.029,0.004-0.058,0.011-0.087,0.015c-0.545,0.075-1.085,0.178-1.626,0.273
		c-0.448,0.078-0.9,0.145-1.344,0.235c-0.056,0.012-0.109,0.027-0.165,0.039c-0.88,0.185-1.752,0.389-2.612,0.624
		c-4.244,1.162-8.223,2.948-11.865,5.227c-0.451,0.283-0.905,0.562-1.346,0.86c-0.464,0.313-0.914,0.645-1.366,0.974
		c-0.231,0.169-0.471,0.325-0.697,0.498l-6.766-6.765c-2.344-2.344-6.18-2.344-8.524,0c-2.345,2.345-2.345,6.181,0,8.524l6.76,6.761
		l0.005,0.005c-0.518,0.679-1.01,1.378-1.489,2.087c-0.056,0.083-0.117,0.161-0.173,0.244c-0.231,0.351-0.445,0.718-0.668,1.076
		c-0.31,0.494-0.624,0.984-0.914,1.491c-2.135,3.728-3.731,7.794-4.727,12.095c-0.125,0.537-0.25,1.072-0.354,1.616
		c-0.109,0.563-0.197,1.125-0.284,1.688c-0.042,0.271-0.1,0.537-0.137,0.811h-9.564c-3.315,0-6.027,2.713-6.027,6.028
		c0,3.316,2.713,6.027,6.027,6.027h9.563c0.005,0.03,0.011,0.059,0.016,0.089c0.075,0.544,0.178,1.081,0.273,1.621
		c0.078,0.449,0.144,0.902,0.236,1.347c0.012,0.057,0.028,0.112,0.04,0.169c0.185,0.879,0.388,1.75,0.623,2.609
		c1.159,4.233,2.939,8.203,5.211,11.838c0.289,0.463,0.575,0.927,0.881,1.378c0.307,0.456,0.634,0.898,0.958,1.343
		c0.173,0.236,0.333,0.482,0.51,0.716l-6.765,6.765c-2.345,2.344-2.345,6.181,0,8.524c2.345,2.345,6.181,2.345,8.524,0l6.76-6.76
		l0.006-0.005c0.709,0.541,1.438,1.058,2.181,1.556c0.049,0.033,0.095,0.069,0.144,0.102c0.373,0.248,0.764,0.476,1.146,0.713
		c0.471,0.294,0.938,0.593,1.42,0.869c3.725,2.136,7.788,3.731,12.087,4.729c0.544,0.126,1.087,0.253,1.639,0.359
		c0.551,0.107,1.101,0.192,1.653,0.278c0.281,0.043,0.556,0.104,0.839,0.142v9.563c0,3.273,2.647,5.948,5.906,6.016v-26.91
		c-0.213-0.007-0.423-0.026-0.636-0.031c-0.79-0.019-1.578-0.047-2.354-0.119c-0.442-0.042-0.884-0.114-1.326-0.175
		c-0.621-0.083-1.243-0.165-1.854-0.283c-0.607-0.118-1.213-0.274-1.818-0.428c-0.434-0.109-0.873-0.208-1.299-0.334
		c-0.746-0.223-1.487-0.49-2.227-0.769c-0.291-0.109-0.589-0.203-0.875-0.32c-0.756-0.309-1.479-0.66-2.199-1.017
		c-0.28-0.14-0.57-0.26-0.846-0.407c-0.582-0.309-1.131-0.658-1.688-0.998c-0.392-0.24-0.796-0.459-1.177-0.715
		c-0.321-0.215-0.616-0.458-0.928-0.683c-3.145-2.275-5.893-5.062-8.07-8.278c-2.151-3.178-3.729-6.764-4.673-10.599
		c-0.091-0.367-0.204-0.725-0.282-1.096c-0.096-0.451-0.148-0.912-0.226-1.368c-0.106-0.641-0.225-1.276-0.294-1.929
		c-0.034-0.313-0.038-0.63-0.063-0.944c-0.063-0.798-0.118-1.599-0.122-2.411c0-0.06-0.009-0.115-0.009-0.174h0.001
		c0-0.249,0.031-0.489,0.037-0.736c0.018-0.799,0.047-1.596,0.12-2.38c0.041-0.435,0.112-0.868,0.171-1.303
		c0.085-0.629,0.168-1.259,0.287-1.877c0.116-0.598,0.271-1.193,0.421-1.789c0.112-0.444,0.213-0.894,0.342-1.33
		c0.22-0.734,0.483-1.464,0.756-2.191c0.113-0.3,0.21-0.607,0.331-0.902c0.309-0.757,0.661-1.482,1.019-2.203
		c0.139-0.278,0.259-0.567,0.405-0.842c0.311-0.585,0.662-1.138,1.004-1.698c0.238-0.388,0.455-0.788,0.708-1.165
		c0.218-0.326,0.465-0.625,0.693-0.942c2.272-3.139,5.057-5.883,8.27-8.058c3.173-2.147,6.752-3.724,10.58-4.668
		c0.373-0.092,0.737-0.207,1.114-0.286c0.448-0.096,0.905-0.147,1.357-0.225c0.645-0.106,1.284-0.226,1.939-0.296
		c0.311-0.033,0.626-0.037,0.938-0.062c0.801-0.063,1.603-0.118,2.418-0.122c0.018,0,0.034-0.002,0.052-0.003v-26.91
		C68.835,12.295,66.188,14.97,66.188,18.243z"/>
	<path style="fill:#FDBB47;" d="M72.094,65.767v-3.958c-2.874,0.034-5.464,1.227-7.329,3.139l3.176,2.459
		C69.052,66.417,70.495,65.798,72.094,65.767z"/>
	<path style="fill:#FAA338;" d="M72.216,65.756c1.867,0,3.536,0.805,4.716,2.072l3.377-2.102c-1.91-2.378-4.806-3.931-8.093-3.931
		c-0.043,0-0.081,0.012-0.122,0.013v3.958C72.135,65.767,72.174,65.756,72.216,65.756z"/>
	<path style="fill:#FAA338;" d="M82.635,72.216c0-1-0.186-1.947-0.448-2.862l-3.575,2.225c0.021,0.213,0.064,0.419,0.064,0.638
		c0,3.567-2.893,6.46-6.46,6.46c-0.042,0-0.081-0.012-0.122-0.013v3.96c0.041,0,0.08,0.013,0.122,0.013
		C77.97,82.636,82.635,77.971,82.635,72.216z"/>
	<path style="fill:#FDBB47;" d="M65.755,72.216c0-0.43,0.047-0.848,0.127-1.254l-3.336-2.583c-0.473,1.189-0.75,2.479-0.75,3.837
		c0,5.713,4.601,10.34,10.298,10.407v-3.96C68.583,78.597,65.755,75.741,65.755,72.216z"/>
	<path style="fill:#FAA338;" d="M67.94,67.406l-3.176-2.459l-5.568-4.312c-0.885-0.686-2.17-0.522-2.855,0.363
		c-0.686,0.886-0.522,2.171,0.363,2.856l5.842,4.523l3.336,2.583C66.159,69.553,66.907,68.325,67.94,67.406z"/>
	<path style="fill:#F2852A;" d="M78.611,71.578l3.575-2.225l9.8-6.098c0.95-0.591,1.244-1.854,0.653-2.804
		c-0.592-0.951-1.854-1.244-2.805-0.653l-9.526,5.928l-3.377,2.102C77.867,68.833,78.468,70.135,78.611,71.578z"/>
	<path style="fill:#F6D276;" d="M72.216,65.756c-0.042,0-0.081,0.011-0.122,0.011v12.896c0.041,0.001,0.08,0.013,0.122,0.013
		c3.567,0,6.46-2.893,6.46-6.46c0-0.219-0.044-0.425-0.064-0.638c-0.144-1.443-0.744-2.745-1.68-3.75
		C75.752,66.561,74.083,65.756,72.216,65.756z"/>
	<path style="fill:#F6E7AA;" d="M67.94,67.406c-1.033,0.919-1.781,2.146-2.059,3.556c-0.08,0.406-0.127,0.824-0.127,1.254
		c0,3.525,2.828,6.381,6.339,6.447V65.767C70.495,65.798,69.052,66.417,67.94,67.406z"/>
	<path style="fill:#493633;" d="M70.308,42.846v1.737c0,1.006,0.796,1.815,1.786,1.883v-5.503
		C71.104,41.029,70.308,41.84,70.308,42.846z"/>
	<path style="fill:#342421;" d="M74.123,44.583v-1.737c0-1.049-0.858-1.908-1.907-1.908c-0.044,0-0.08,0.022-0.122,0.025v5.503
		c0.042,0.003,0.078,0.024,0.122,0.024C73.265,46.49,74.123,45.632,74.123,44.583z"/>
	<path style="fill:#342421;" d="M74.123,102.141v-1.737c0-1.049-0.858-1.907-1.907-1.907c-0.044,0-0.08,0.021-0.122,0.024v5.503
		c0.042,0.003,0.078,0.024,0.122,0.024C73.265,104.048,74.123,103.189,74.123,102.141z"/>
	<path style="fill:#493633;" d="M70.308,100.403v1.737c0,1.006,0.796,1.816,1.786,1.883v-5.503
		C71.104,98.588,70.308,99.397,70.308,100.403z"/>
	<path style="fill:#342421;" d="M100.126,74.4h1.737c1.049,0,1.907-0.858,1.907-1.907c0-1.049-0.858-1.907-1.907-1.907h-1.737
		c-1.05,0-1.907,0.858-1.907,1.907C98.219,73.542,99.076,74.4,100.126,74.4z"/>
	<path style="fill:#493633;" d="M44.305,70.586h-1.737c-1.049,0-1.907,0.858-1.907,1.907c0,1.049,0.858,1.907,1.907,1.907h1.737
		c1.05,0,1.907-0.858,1.907-1.907C46.212,71.444,45.354,70.586,44.305,70.586z"/>
</g>
<g>
</g>
<g>
</g>
<g>
</g>
<g>
</g>
<g>
</g>
<g>
</g>
<g>
</g>
<g>
</g>
<g>
</g>
<g>
</g>
<g>
</g>
<g>
</g>
<g>
</g>
<g>
</g>
<g>
</g>
</svg>
