<?xml version="1.0" encoding="iso-8859-1"?>
<!-- Generator: Adobe Illustrator 18.0.0, SVG Export Plug-In . SVG Version: 6.00 Build 0)  -->
<!DOCTYPE svg PUBLIC "-//W3C//DTD SVG 1.1//EN" "http://www.w3.org/Graphics/SVG/1.1/DTD/svg11.dtd">
<svg version="1.1" id="Capa_1" xmlns="http://www.w3.org/2000/svg" xmlns:xlink="http://www.w3.org/1999/xlink" x="0px" y="0px"
	 viewBox="0 0 140.656 140.656" style="enable-background:new 0 0 140.656 140.656;" xml:space="preserve">
<g>
	<path style="fill:#F6E7AA;" d="M69.928,124.2c0.136-0.01,0.266,0.01,0.399,0.01v-2.431c-4.292,0-7.772,3.48-7.772,7.773h2.432
		C64.986,126.77,67.108,124.411,69.928,124.2z"/>
	<path style="fill:#F6D276;" d="M70.329,121.779L70.329,121.779l-0.001,2.431c2.783,0,5.142,2.121,5.353,4.941
		c0.011,0.136-0.01,0.266-0.01,0.401h2.431C78.101,125.259,74.622,121.779,70.329,121.779z"/>
	<path style="fill:#F6D276;" d="M70.329,111.846L70.329,111.846l-0.001,6.602h0.001c6.132,0,11.104,4.972,11.104,11.104h6.601
		C88.034,119.773,80.107,111.846,70.329,111.846z"/>
	<path style="fill:#F6E7AA;" d="M70.328,118.448v-6.602c-9.777,0-17.705,7.927-17.705,17.706h6.602
		C59.224,123.419,64.195,118.448,70.328,118.448z"/>
	<path style="fill:#F6D276;" d="M70.328,74.493v22.949h0.001c1.774,0,3.226,1.452,3.226,3.226v5.119
		c4.213,0.567,8.071,2.223,11.297,4.681l3.62-3.62c1.255-1.255,3.308-1.255,4.563,0c1.255,1.254,1.255,3.308,0,4.562l-3.62,3.621
		c2.458,3.225,4.113,7.084,4.681,11.297h5.118c1.774,0,3.227,1.452,3.227,3.226h9.806c0.036-8.639-0.946-29.816-11.194-34.794
		C90.194,89.484,81.96,81.614,79.57,74.409c-0.266,0.054-0.54,0.083-0.82,0.083H70.328z"/>
	<path style="fill:#F6E7AA;" d="M41.444,126.326h5.118c0.567-4.213,2.223-8.072,4.681-11.297l-3.62-3.621
		c-1.254-1.254-1.254-3.308,0-4.562c1.255-1.255,3.308-1.255,4.563,0l3.62,3.62c3.226-2.458,7.084-4.113,11.297-4.681v-5.119
		c0-1.774,1.452-3.226,3.226-3.226V74.493h-8.42c-0.281,0-0.556-0.03-0.821-0.083c-2.39,7.205-10.623,15.075-21.48,20.349
		c-10.248,4.978-11.23,26.155-11.194,34.794h9.807C38.218,127.778,39.669,126.326,41.444,126.326z"/>
	<path style="fill:#F2852A;" d="M70.329,118.448L70.329,118.448l-0.001,3.331h0.001c4.293,0,7.772,3.48,7.772,7.773h3.332
		C81.433,123.419,76.46,118.448,70.329,118.448z"/>
	<path style="fill:#FAA338;" d="M70.328,121.779v-3.331c-6.133,0-11.104,4.972-11.104,11.104h3.331
		C62.555,125.259,66.036,121.779,70.328,121.779z"/>
	<path style="fill:#FAA338;" d="M99.212,126.326h-5.118c-0.567-4.213-2.223-8.072-4.681-11.297l3.62-3.621
		c1.255-1.254,1.255-3.308,0-4.562c-1.255-1.255-3.308-1.255-4.563,0l-3.62,3.62c-3.226-2.458-7.084-4.113-11.297-4.681v-5.119
		c0-1.774-1.451-3.226-3.226-3.226h-0.001v14.404h0.001c9.778,0,17.705,7.927,17.705,17.706h14.405
		C102.439,127.778,100.987,126.326,99.212,126.326z"/>
	<path style="fill:#FDBB47;" d="M70.328,111.846V97.442c-1.773,0-3.226,1.452-3.226,3.226v5.119
		c-4.213,0.567-8.071,2.223-11.297,4.681l-3.62-3.62c-1.255-1.255-3.308-1.255-4.563,0c-1.254,1.254-1.254,3.308,0,4.562l3.62,3.621
		c-2.458,3.225-4.113,7.084-4.681,11.297h-5.118c-1.774,0-3.226,1.452-3.226,3.226h14.404
		C52.623,119.773,60.55,111.846,70.328,111.846z"/>
	<path style="fill:#4E2800;" d="M69.928,124.2c-2.82,0.211-4.942,2.57-4.941,5.353h5.341v-5.342
		C70.194,124.21,70.064,124.189,69.928,124.2z"/>
	<path style="fill:#3F1D00;" d="M70.328,124.21v5.342h5.343c0-0.135,0.021-0.265,0.01-0.401
		C75.469,126.331,73.111,124.21,70.328,124.21z"/>
	<path style="fill:#493633;" d="M64.987,129.552h-2.432h-3.331h-6.602H38.218h-9.807h-8.054c-3.054,0-5.552,2.499-5.552,5.552
		c0,3.054,2.498,5.552,5.552,5.552h49.97v-11.104H64.987z"/>
	<path style="fill:#342421;" d="M120.298,129.552h-8.054h-9.806H88.034h-6.601h-3.332H75.67h-5.343v11.104h49.971
		c3.054,0,5.552-2.498,5.552-5.552C125.85,132.051,123.352,129.552,120.298,129.552z"/>
	<path style="fill:#F6E7AA;" d="M70.328,66.164V43.215c-1.773,0-3.226-1.451-3.226-3.226v-5.118
		c-4.213-0.567-8.071-2.223-11.297-4.681l-3.62,3.62c-1.255,1.255-3.308,1.255-4.563,0c-1.254-1.254-1.254-3.308,0-4.562l3.621-3.62
		c-2.459-3.226-4.114-7.084-4.682-11.297h-5.118c-1.774,0-3.226-1.451-3.226-3.226h14.404c0,9.778,7.928,17.705,17.705,17.705
		v-6.601c-6.132,0-11.104-4.971-11.104-11.104v0H28.412c-0.036,8.639,0.946,29.817,11.194,34.794
		c10.858,5.274,19.091,13.144,21.48,20.349c0.266-0.054,0.54-0.083,0.821-0.083H70.328z"/>
	<path style="fill:#F6D276;" d="M81.432,11.105c0,6.133-4.972,11.104-11.104,11.104v6.601c9.779,0,17.706-7.927,17.706-17.705
		h14.405c0,1.774-1.452,3.226-3.227,3.226h-5.118c-0.567,4.213-2.223,8.072-4.681,11.297l3.62,3.62c1.255,1.254,1.255,3.308,0,4.562
		c-1.255,1.255-3.308,1.255-4.563,0l-3.62-3.62c-3.226,2.458-7.084,4.114-11.297,4.681v5.118c0,1.774-1.451,3.226-3.227,3.226
		v22.949h8.422c0.28,0,0.555,0.03,0.82,0.083c2.39-7.205,10.623-15.075,21.48-20.349c10.248-4.977,11.23-26.155,11.194-34.794
		L81.432,11.105L81.432,11.105z"/>
	<path style="fill:#F6D276;" d="M70.729,16.457c-0.137,0.01-0.267-0.011-0.401-0.011v2.432c4.294,0,7.773-3.48,7.773-7.773v0h-2.432
		C75.67,13.887,73.548,16.246,70.729,16.457z"/>
	<path style="fill:#F6E7AA;" d="M70.328,18.878v-2.432c-2.781,0-5.141-2.122-5.352-4.941c-0.01-0.136,0.01-0.267,0.01-0.401h-2.431
		v0C62.555,15.398,66.036,18.878,70.328,18.878z"/>
	<path style="fill:#F2852A;" d="M81.432,11.105L81.432,11.105l-3.331,0v0c0,4.293-3.479,7.773-7.773,7.773v3.331
		C76.46,22.209,81.432,17.238,81.432,11.105z"/>
	<path style="fill:#FAA338;" d="M62.555,11.105L62.555,11.105l-3.331,0v0c0,6.133,4.972,11.104,11.104,11.104v-3.331
		C66.036,18.878,62.555,15.398,62.555,11.105z"/>
	<path style="fill:#FDBB47;" d="M52.623,11.105H38.218c0,1.774,1.451,3.226,3.226,3.226h5.118c0.567,4.213,2.223,8.072,4.682,11.297
		l-3.621,3.62c-1.254,1.254-1.254,3.308,0,4.562c1.255,1.255,3.308,1.255,4.563,0l3.62-3.62c3.226,2.458,7.084,4.114,11.297,4.681
		v5.118c0,1.774,1.452,3.226,3.226,3.226V28.81C60.55,28.81,52.623,20.883,52.623,11.105z"/>
	<path style="fill:#FAA338;" d="M73.554,39.989v-5.118c4.213-0.567,8.071-2.223,11.297-4.681l3.62,3.62
		c1.255,1.255,3.308,1.255,4.563,0c1.255-1.254,1.255-3.308,0-4.562l-3.62-3.62c2.458-3.226,4.113-7.084,4.681-11.297h5.118
		c1.774,0,3.227-1.451,3.227-3.226H88.034c0,9.778-7.927,17.705-17.706,17.705v14.404C72.103,43.215,73.554,41.764,73.554,39.989z"
		/>
	<path style="fill:#3F1D00;" d="M70.729,16.457c2.819-0.211,4.941-2.57,4.94-5.353h-5.342v5.342
		C70.462,16.446,70.592,16.467,70.729,16.457z"/>
	<path style="fill:#4E2800;" d="M70.328,16.446v-5.342h-5.342c0,0.134-0.02,0.265-0.01,0.401
		C65.187,14.325,67.546,16.447,70.328,16.446z"/>
	<path style="fill:#342421;" d="M75.669,11.104h2.432h3.331h30.813h8.054c3.054,0,5.552-2.498,5.552-5.552
		c0-3.054-2.498-5.552-5.552-5.552H70.328v11.104H75.669z"/>
	<path style="fill:#493633;" d="M62.555,11.104h2.431h5.342V0h-49.97c-3.054,0-5.552,2.499-5.552,5.552
		c0,3.054,2.498,5.552,5.552,5.552h8.054h30.813H62.555z"/>
	<path style="fill:#F2852A;" d="M70.328,66.164v8.329h8.422c0.28,0,0.555-0.03,0.82-0.083c1.9-0.384,3.344-2.071,3.344-4.081
		c0-2.01-1.443-3.697-3.344-4.081c-0.266-0.054-0.54-0.083-0.82-0.083H70.328z"/>
	<path style="fill:#FAA338;" d="M70.328,74.493v-8.329h-8.42c-0.281,0-0.556,0.03-0.821,0.083c-1.9,0.384-3.343,2.072-3.343,4.081
		s1.442,3.696,3.343,4.081c0.266,0.054,0.54,0.083,0.821,0.083H70.328z"/>
</g>
<g>
</g>
<g>
</g>
<g>
</g>
<g>
</g>
<g>
</g>
<g>
</g>
<g>
</g>
<g>
</g>
<g>
</g>
<g>
</g>
<g>
</g>
<g>
</g>
<g>
</g>
<g>
</g>
<g>
</g>
</svg>
