<?xml version="1.0" encoding="iso-8859-1"?>
<!-- Generator: Adobe Illustrator 18.0.0, SVG Export Plug-In . SVG Version: 6.00 Build 0)  -->
<!DOCTYPE svg PUBLIC "-//W3C//DTD SVG 1.1//EN" "http://www.w3.org/Graphics/SVG/1.1/DTD/svg11.dtd">
<svg version="1.1" id="Capa_1" xmlns="http://www.w3.org/2000/svg" xmlns:xlink="http://www.w3.org/1999/xlink" x="0px" y="0px"
	 viewBox="0 0 143.546 143.546" style="enable-background:new 0 0 143.546 143.546;" xml:space="preserve">
<g>
	<path style="fill:#F2852A;" d="M71.773,143.546h4.354c4.14,0,7.495-3.357,7.495-7.496v-1.09h-11.85V143.546z"/>
	<path style="fill:#FAA338;" d="M59.553,134.96v1.09c0,4.14,3.356,7.496,7.495,7.496h4.726v-8.586H59.553z"/>
	<g>
		<path style="fill:#F6D276;" d="M72.839,19.254c12.316,0,22.394,10.077,22.394,22.393v31.214c0,0.888-0.066,1.76-0.168,2.621h0.302
			c2.511,0,4.692,1.384,5.884,3.413c5.894-8.365,9.481-19.237,9.481-31.156C110.731,21.374,93.289,0,71.773,0v19.254H72.839z"/>
		<path style="fill:#F6E7AA;" d="M48.18,75.483h0.301c-0.102-0.861-0.168-1.733-0.168-2.621V41.648
			c0-12.316,10.077-22.393,22.394-22.393h1.066V0C50.257,0,32.815,21.374,32.815,47.74c0,11.919,3.587,22.791,9.48,31.156
			C43.487,76.868,45.67,75.483,48.18,75.483z"/>
		<path style="fill:#F2B350;" d="M80.232,27.411c1.964,0,3.57,1.605,3.57,3.569v0.34c0,1.963-1.606,3.569-3.57,3.569H75.85v4.542
			h7.799c1.963,0,3.569,1.607,3.569,3.569v0.34c0,1.963-1.606,3.569-3.569,3.569H75.85v4.542h9.423c1.964,0,3.57,1.607,3.57,3.569
			v0.34c0,1.963-1.606,3.569-3.57,3.569H75.85v4.542h10.587c1.963,0,3.569,1.606,3.569,3.569v0.34c0,1.963-1.606,3.569-3.569,3.569
			H75.85v4.532h19.214c0.102-0.861,0.168-1.733,0.168-2.621V41.648c0-12.316-10.077-22.393-22.394-22.393h-1.065v8.156H80.232z"/>
		<path style="fill:#F6D276;" d="M56.739,70.951c-1.964,0-3.57-1.606-3.57-3.569v-0.34c0-1.963,1.606-3.569,3.57-3.569h10.587V58.93
			h-9.424c-1.964,0-3.569-1.606-3.569-3.569v-0.34c0-1.963,1.605-3.569,3.569-3.569h9.424V46.91h-7.8
			c-1.963,0-3.569-1.606-3.569-3.569V43c0-1.963,1.606-3.569,3.569-3.569h7.8v-4.542h-4.383c-1.964,0-3.569-1.606-3.569-3.569v-0.34
			c0-1.964,1.606-3.569,3.569-3.569h8.83v-8.156h-1.066c-12.316,0-22.394,10.077-22.394,22.393v31.214
			c0,0.888,0.066,1.76,0.168,2.621h18.845v-4.532H56.739z"/>
		<rect x="67.326" y="70.951" style="fill:#FAA338;" width="4.447" height="4.532"/>
		<rect x="71.773" y="70.951" style="fill:#F2852A;" width="4.077" height="4.532"/>
		<rect x="71.773" y="34.889" style="fill:#F2852A;" width="4.077" height="4.542"/>
		<rect x="67.326" y="34.889" style="fill:#FAA338;" width="4.447" height="4.542"/>
		<rect x="67.326" y="46.91" style="fill:#FAA338;" width="4.447" height="4.542"/>
		<rect x="71.773" y="46.91" style="fill:#F2852A;" width="4.077" height="4.542"/>
		<rect x="67.326" y="58.93" style="fill:#FAA338;" width="4.447" height="4.542"/>
		<rect x="71.773" y="58.93" style="fill:#F2852A;" width="4.077" height="4.542"/>
		<rect x="59.552" y="120.248" style="fill:#FAA338;" width="12.221" height="4.14"/>
		<rect x="71.773" y="120.248" style="fill:#F2852A;" width="11.85" height="4.14"/>
		<path style="fill:#F2852A;" d="M71.773,106.343h11.85v-6.382c0-0.017-0.005-0.031-0.005-0.048H71.773V106.343z"/>
		<path style="fill:#FAA338;" d="M71.773,99.913H59.557c0,0.017-0.005,0.031-0.005,0.048v6.382h12.221V99.913z"/>
		<path style="fill:#FDBB47;" d="M67.326,63.472H56.739c-1.964,0-3.57,1.606-3.57,3.569v0.34c0,1.963,1.606,3.569,3.57,3.569h10.587
			h4.447v-7.479H67.326z"/>
		<path style="fill:#FAA338;" d="M90.007,67.381v-0.34c0-1.963-1.606-3.569-3.569-3.569H75.85h-4.077v7.479h4.077h10.587
			C88.4,70.951,90.007,69.344,90.007,67.381z"/>
		<path style="fill:#FAA338;" d="M98.878,106.343H83.623h-11.85v13.904h11.85h15.255c3.824,0,6.953-3.129,6.953-6.952
			C105.831,109.471,102.702,106.343,98.878,106.343z"/>
		<path style="fill:#FDBB47;" d="M71.773,106.343H59.553H44.298c-3.824,0-6.952,3.128-6.952,6.952c0,3.823,3.128,6.952,6.952,6.952
			h15.255h12.221V106.343z"/>
		<path style="fill:#FAA338;" d="M71.773,134.96h11.85h4.514c2.646,0,4.812-2.165,4.812-4.812V129.2
			c0-2.647-2.165-4.813-4.812-4.813h-4.514h-11.85V134.96z"/>
		<path style="fill:#FDBB47;" d="M59.553,124.387h-4.514c-2.646,0-4.812,2.166-4.812,4.813v0.949c0,2.646,2.166,4.812,4.812,4.812
			h4.514h12.221v-10.573H59.553z"/>
		<path style="fill:#FAA338;" d="M71.773,58.93h4.077h9.423c1.964,0,3.57-1.606,3.57-3.569v-0.34c0-1.963-1.606-3.569-3.57-3.569
			H75.85h-4.077V58.93z"/>
		<path style="fill:#FDBB47;" d="M71.773,51.452h-4.447h-9.424c-1.964,0-3.569,1.607-3.569,3.569v0.34
			c0,1.963,1.605,3.569,3.569,3.569h9.424h4.447V51.452z"/>
		<path style="fill:#FDBB47;" d="M71.773,39.431h-4.447h-7.8c-1.963,0-3.569,1.607-3.569,3.569v0.34
			c0,1.963,1.606,3.569,3.569,3.569h7.8h4.447V39.431z"/>
		<path style="fill:#FAA338;" d="M71.773,46.91h4.077h7.799c1.963,0,3.569-1.606,3.569-3.569V43c0-1.963-1.606-3.569-3.569-3.569
			H75.85h-4.077V46.91z"/>
		<path style="fill:#FAA338;" d="M75.85,34.889h4.382c1.964,0,3.57-1.606,3.57-3.569v-0.34c0-1.964-1.606-3.569-3.57-3.569h-8.459
			v7.478H75.85z"/>
		<path style="fill:#FDBB47;" d="M71.773,27.411h-8.83c-1.964,0-3.569,1.605-3.569,3.569v0.34c0,1.963,1.606,3.569,3.569,3.569
			h4.383h4.447V27.411z"/>
		<path style="fill:#342421;" d="M95.366,75.483h-0.302H75.85h-4.077v24.431h11.845h11.748c3.766,0,6.846-3.08,6.846-6.846V82.329
			c0-1.255-0.366-2.419-0.962-3.433C100.058,76.867,97.877,75.483,95.366,75.483z M79.765,84.719c-1.413,0-2.558-1.146-2.558-2.558
			c0-1.413,1.145-2.559,2.558-2.559c1.413,0,2.558,1.146,2.558,2.559C82.323,83.574,81.178,84.719,79.765,84.719z M94.921,84.719
			c-1.412,0-2.558-1.146-2.558-2.558c0-1.413,1.146-2.559,2.558-2.559c1.413,0,2.558,1.146,2.558,2.559
			C97.478,83.574,96.334,84.719,94.921,84.719z"/>
		<path style="fill:#493633;" d="M71.773,75.483h-4.447H48.481H48.18c-2.511,0-4.693,1.385-5.885,3.413
			c-0.596,1.014-0.962,2.178-0.962,3.433v10.739c0,3.766,3.081,6.846,6.847,6.846h11.377h12.216V75.483z M49.455,84.719
			c-1.413,0-2.558-1.146-2.558-2.558c0-1.413,1.145-2.559,2.558-2.559c1.413,0,2.558,1.146,2.558,2.559
			C52.013,83.574,50.868,84.719,49.455,84.719z M64.61,84.719c-1.412,0-2.558-1.146-2.558-2.558c0-1.413,1.146-2.559,2.558-2.559
			c1.413,0,2.558,1.146,2.558,2.559C67.168,83.574,66.023,84.719,64.61,84.719z"/>
		<circle style="fill:#FDBB47;" cx="49.455" cy="82.161" r="2.558"/>
		<circle style="fill:#FDBB47;" cx="64.61" cy="82.161" r="2.558"/>
		<circle style="fill:#FAA338;" cx="79.765" cy="82.161" r="2.558"/>
		<circle style="fill:#FAA338;" cx="94.921" cy="82.161" r="2.558"/>
	</g>
</g>
<g>
</g>
<g>
</g>
<g>
</g>
<g>
</g>
<g>
</g>
<g>
</g>
<g>
</g>
<g>
</g>
<g>
</g>
<g>
</g>
<g>
</g>
<g>
</g>
<g>
</g>
<g>
</g>
<g>
</g>
</svg>
