<?xml version="1.0" encoding="iso-8859-1"?>
<!-- Generator: Adobe Illustrator 18.0.0, SVG Export Plug-In . SVG Version: 6.00 Build 0)  -->
<!DOCTYPE svg PUBLIC "-//W3C//DTD SVG 1.1//EN" "http://www.w3.org/Graphics/SVG/1.1/DTD/svg11.dtd">
<svg version="1.1" id="Capa_1" xmlns="http://www.w3.org/2000/svg" xmlns:xlink="http://www.w3.org/1999/xlink" x="0px" y="0px"
	 viewBox="0 0 157.736 157.736" style="enable-background:new 0 0 157.736 157.736;" xml:space="preserve">
<g>
	<path style="fill:#FAA338;" d="M79.285,145.892v-2.648c-1.242,0-2.249-1.007-2.249-2.249c0-1.242,1.007-2.249,2.249-2.249v-7.146
		H64.803v14.62c0.586-0.195,1.201-0.327,1.85-0.327H79.285z"/>
	<path style="fill:#F2852A;" d="M79.285,138.745c1.241,0,2.249,1.007,2.249,2.249c0,1.242-1.008,2.249-2.249,2.249v2.648h11.798
		c0.649,0,1.265,0.132,1.851,0.327v-14.62H79.285V138.745z"/>
	<path style="fill:#FDBB47;" d="M79.285,97.625H62.219v25.731c0,0.014,0.008,0.024,0.008,0.038h17.059V97.625z M73.113,120.947
		c-1.242,0-2.249-1.007-2.249-2.249c0-1.242,1.007-2.249,2.249-2.249c1.242,0,2.249,1.007,2.249,2.249
		C75.362,119.94,74.355,120.947,73.113,120.947z"/>
	<path style="fill:#FAA338;" d="M79.285,123.395H95.51c0-0.014,0.008-0.024,0.008-0.038V97.625H79.285V123.395z M85.456,116.449
		c1.242,0,2.249,1.007,2.249,2.249c0,1.242-1.007,2.249-2.249,2.249s-2.249-1.007-2.249-2.249
		C83.207,117.456,84.214,116.449,85.456,116.449z"/>
	<path style="fill:#342421;" d="M79.285,145.892v11.845h11.798c3.258,0,5.923-2.665,5.923-5.922c0-2.607-1.72-4.811-4.072-5.596
		c-0.586-0.195-1.201-0.327-1.851-0.327H79.285z"/>
	<path style="fill:#493633;" d="M66.653,145.892c-0.649,0-1.265,0.132-1.85,0.327c-2.353,0.785-4.071,2.988-4.071,5.596
		c0,3.257,2.665,5.922,5.922,5.922h12.632v-11.845H66.653z"/>
	<path style="fill:#342421;" d="M79.285,131.599h13.648h3.302c2.256,0,4.102-1.847,4.102-4.103c0-2.256-1.846-4.102-4.102-4.102
		H95.51H79.285V131.599z"/>
	<path style="fill:#493633;" d="M79.285,123.395H62.227h-0.725c-2.257,0-4.103,1.846-4.103,4.102c0,2.256,1.846,4.103,4.103,4.103
		h3.301h14.482V123.395z"/>
	<path style="fill:#F2852A;" d="M79.285,80.082c1.241,0,2.249,1.006,2.249,2.248c0,1.242-1.008,2.249-2.249,2.249v3.361h21.112
		V55.491H79.285V80.082z M91.627,80.082c1.242,0,2.249,1.006,2.249,2.248c0,1.242-1.007,2.249-2.249,2.249
		c-1.242,0-2.249-1.007-2.249-2.249C89.378,81.088,90.385,80.082,91.627,80.082z"/>
	<path style="fill:#FAA338;" d="M79.285,84.579c-1.242,0-2.249-1.007-2.249-2.249c0-1.242,1.007-2.248,2.249-2.248V55.491H57.34
		V87.94h21.945V84.579z M66.109,84.579c-1.242,0-2.249-1.007-2.249-2.249c0-1.242,1.007-2.248,2.249-2.248
		c1.242,0,2.249,1.006,2.249,2.248C68.358,83.572,67.352,84.579,66.109,84.579z"/>
	<path style="fill:#493633;" d="M79.285,87.94H57.34h-2.131c-2.256,0-4.102,1.846-4.102,4.103v1.48c0,2.256,1.846,4.102,4.102,4.102
		h7.01h17.066V87.94z"/>
	<path style="fill:#342421;" d="M79.285,97.625h16.232h7.01c2.256,0,4.103-1.846,4.103-4.102v-1.48c0-2.257-1.847-4.103-4.103-4.103
		h-2.13H79.285V97.625z"/>
	<path style="fill:#FDBB47;" d="M79.285,10.425H53.32v34.642h25.965V10.425z M59.105,41.867c-1.242,0-2.249-1.007-2.249-2.248
		c0-1.242,1.007-2.249,2.249-2.249s2.249,1.007,2.249,2.249C61.354,40.86,60.348,41.867,59.105,41.867z M72.28,41.867
		c-1.242,0-2.248-1.007-2.248-2.248c0-1.242,1.006-2.249,2.248-2.249c1.242,0,2.249,1.007,2.249,2.249
		C74.529,40.86,73.522,41.867,72.28,41.867z"/>
	<path style="fill:#FAA338;" d="M79.285,10.425v34.642h25.131V10.425H79.285z M85.456,41.867c-1.242,0-2.249-1.007-2.249-2.248
		c0-1.242,1.007-2.249,2.249-2.249s2.249,1.007,2.249,2.249C87.705,40.86,86.698,41.867,85.456,41.867z M97.799,41.867
		c-1.242,0-2.249-1.007-2.249-2.248c0-1.242,1.007-2.249,2.249-2.249c1.241,0,2.249,1.007,2.249,2.249
		C100.048,40.86,99.04,41.867,97.799,41.867z"/>
	<path style="fill:#342421;" d="M79.285,55.491h21.112h7.313c2.256,0,4.102-1.846,4.102-4.102v-2.222
		c0-2.256-1.846-4.102-4.102-4.102h-3.294H79.285V55.491z"/>
	<path style="fill:#493633;" d="M79.285,45.066H53.32h-3.293c-2.257,0-4.103,1.846-4.103,4.102v2.222
		c0,2.256,1.846,4.102,4.103,4.102h7.313h21.945V45.066z"/>
	<path style="fill:#342421;" d="M104.416,10.425h3.294c2.256,0,4.102-1.847,4.102-4.103V4.102c0-2.256-1.846-4.102-4.102-4.102
		H79.285v10.425H104.416z"/>
	<path style="fill:#493633;" d="M79.285,0H50.027c-2.257,0-4.103,1.846-4.103,4.102v2.221c0,2.256,1.846,4.103,4.103,4.103h3.293
		h25.965V0z"/>
	<circle style="fill:#493633;" cx="59.105" cy="39.619" r="2.249"/>
	<circle style="fill:#493633;" cx="72.28" cy="39.619" r="2.249"/>
	<circle style="fill:#342421;" cx="85.456" cy="39.619" r="2.249"/>
	<circle style="fill:#342421;" cx="97.799" cy="39.619" r="2.249"/>
	<circle style="fill:#493633;" cx="66.109" cy="82.331" r="2.249"/>
	<path style="fill:#342421;" d="M81.534,82.33c0-1.242-1.008-2.248-2.249-2.248v4.497C80.526,84.579,81.534,83.572,81.534,82.33z"/>
	<path style="fill:#493633;" d="M77.036,82.33c0,1.242,1.007,2.249,2.249,2.249v-4.497C78.043,80.082,77.036,81.088,77.036,82.33z"
		/>
	<circle style="fill:#342421;" cx="91.627" cy="82.331" r="2.249"/>
	<circle style="fill:#493633;" cx="73.113" cy="118.698" r="2.249"/>
	<circle style="fill:#342421;" cx="85.456" cy="118.698" r="2.249"/>
	<path style="fill:#342421;" d="M81.534,140.994c0-1.242-1.008-2.249-2.249-2.249v4.498
		C80.526,143.243,81.534,142.236,81.534,140.994z"/>
	<path style="fill:#493633;" d="M77.036,140.994c0,1.242,1.007,2.249,2.249,2.249v-4.498
		C78.043,138.745,77.036,139.752,77.036,140.994z"/>
</g>
<g>
</g>
<g>
</g>
<g>
</g>
<g>
</g>
<g>
</g>
<g>
</g>
<g>
</g>
<g>
</g>
<g>
</g>
<g>
</g>
<g>
</g>
<g>
</g>
<g>
</g>
<g>
</g>
<g>
</g>
</svg>
